<svg width="42" height="42" viewBox="0 0 42 42" fill="none" xmlns="http://www.w3.org/2000/svg">
<path d="M19.5825 21L24.57 25.9875C24.955 26.3725 25.1475 26.8537 25.1475 27.4312C25.1475 28.0087 24.955 28.5075 24.57 28.9275C24.15 29.3475 23.6513 29.5575 23.0738 29.5575C22.4963 29.5575 21.9975 29.3475 21.5775 28.9275L15.12 22.47C14.7 22.05 14.49 21.56 14.49 21C14.49 20.44 14.7 19.95 15.12 19.53L21.63 13.02C22.05 12.6 22.54 12.3987 23.1 12.4162C23.66 12.4337 24.15 12.6525 24.57 13.0725C24.955 13.4925 25.1563 13.9825 25.1738 14.5425C25.1913 15.1025 24.99 15.5925 24.57 16.0125L19.5825 21ZM21 42C23.905 42 26.635 41.4487 29.19 40.3462C31.745 39.2437 33.9675 37.7475 35.8575 35.8575C37.7475 33.9675 39.2438 31.745 40.3463 29.19C41.4488 26.635 42 23.905 42 21C42 18.095 41.4488 15.365 40.3463 12.81C39.2438 10.255 37.7475 8.0325 35.8575 6.1425C33.9675 4.2525 31.745 2.75625 29.19 1.65375C26.635 0.55125 23.905 0 21 0C18.095 0 15.365 0.55125 12.81 1.65375C10.255 2.75625 8.0325 4.2525 6.1425 6.1425C4.2525 8.0325 2.75625 10.255 1.65375 12.81C0.551251 15.365 1.3113e-06 18.095 1.3113e-06 21C1.3113e-06 23.905 0.551251 26.635 1.65375 29.19C2.75625 31.745 4.2525 33.9675 6.1425 35.8575C8.0325 37.7475 10.255 39.2437 12.81 40.3462C15.365 41.4487 18.095 42 21 42Z" fill="white"/>
</svg>
