<svg width="10" height="10" viewBox="0 0 10 10" fill="none" xmlns="http://www.w3.org/2000/svg">
<path d="M1.90802 0C1.73382 0 1.56675 0.0692001 1.44358 0.192377C1.3204 0.315554 1.2512 0.482618 1.2512 0.656817C1.2512 0.831015 1.3204 0.998079 1.44358 1.12126C1.56675 1.24443 1.73382 1.31363 1.90802 1.31363H7.75807L0.20905 8.86265C0.144519 8.92278 0.0927596 8.99529 0.0568606 9.07586C0.0209617 9.15643 0.00165825 9.2434 0.000102218 9.3316C-0.00145381 9.41979 0.0147695 9.50739 0.0478039 9.58917C0.0808383 9.67096 0.130007 9.74525 0.192377 9.80762C0.254748 9.86999 0.329041 9.91916 0.410827 9.9522C0.492612 9.98523 0.580213 10.0015 0.668404 9.9999C0.756595 9.99834 0.843569 9.97904 0.924138 9.94314C1.00471 9.90724 1.07722 9.85548 1.13735 9.79095L8.68637 2.24193V8.09198C8.68637 8.26618 8.75557 8.43325 8.87874 8.55642C9.00192 8.6796 9.16898 8.7488 9.34318 8.7488C9.51738 8.7488 9.68444 8.6796 9.80762 8.55642C9.9308 8.43325 10 8.26618 10 8.09198V0.656817C9.99844 0.569628 9.98062 0.483496 9.94745 0.402848C9.89979 0.290876 9.82233 0.194116 9.72352 0.12309C9.6247 0.0520642 9.5083 0.00949123 9.38697 0H1.90802Z" fill="white"/>
</svg>
