<svg width="56" height="51" viewBox="0 0 56 51" fill="none" xmlns="http://www.w3.org/2000/svg">
<path d="M28 30.9297L7.13308 49.9335C6.35234 50.6445 5.35868 51 4.15209 51C2.9455 51 1.95184 50.6445 1.1711 49.9335C0.390366 49.2224 0 48.3175 0 47.2186C0 46.1198 0.390366 45.2148 1.1711 44.5038L22.038 25.5L1.1711 6.4962C0.390366 5.78517 0 4.88023 0 3.78137C0 2.68251 0.390366 1.77757 1.1711 1.06654C1.95184 0.355512 2.9455 0 4.15209 0C5.35868 0 6.35234 0.355512 7.13308 1.06654L28 20.0703L48.8669 1.06654C49.6477 0.355512 50.6413 0 51.8479 0C53.0545 0 54.0482 0.355512 54.8289 1.06654C55.6096 1.77757 56 2.68251 56 3.78137C56 4.88023 55.6096 5.78517 54.8289 6.4962L33.962 25.5L54.8289 44.5038C55.6096 45.2148 56 46.1198 56 47.2186C56 48.3175 55.6096 49.2224 54.8289 49.9335C54.0482 50.6445 53.0545 51 51.8479 51C50.6413 51 49.6477 50.6445 48.8669 49.9335L28 30.9297Z" fill="white"/>
</svg>
