<svg width="89" height="64" viewBox="0 0 89 64" fill="none" xmlns="http://www.w3.org/2000/svg">
<path d="M86.7381 24.3882C84.7437 23.0044 80.1734 22.4854 76.6005 23.1773C76.1854 19.7179 74.274 16.6912 70.9502 14.0101L69.0392 12.6263L67.7094 14.6155C66.0478 17.2101 65.2168 20.8426 65.4659 24.302C65.5489 25.5125 65.9644 27.6746 67.2109 29.5773C66.0478 30.2692 63.6379 31.1341 60.4805 31.1341H0.403502L0.237448 31.826C-0.344433 35.2851 -0.344434 46.0956 6.46932 54.3979C11.6211 60.7111 19.2659 63.9111 29.3201 63.9111C51.0905 63.9111 67.2109 53.4462 74.7725 34.5067C77.7639 34.5932 84.1622 34.5067 87.403 28.0202C87.4861 27.8473 87.6521 27.5013 88.2336 26.2044L88.5661 25.5125L86.7381 24.3882ZM48.4315 0H39.2916V8.6483H48.4315V0ZM48.4315 10.378H39.2916V19.0263H48.4315V10.378ZM37.6294 10.378H28.4895V19.0263H37.6294V10.378ZM26.8272 10.378H17.687V19.0263H26.8272V10.378ZM16.025 20.7561H6.8848V29.4044H16.0247L16.025 20.7561ZM26.8272 20.7561H17.687V29.4044H26.8272V20.7561ZM37.6294 20.7561H28.4895V29.4044H37.6294V20.7561ZM48.4319 20.7561H39.2913V29.4044H48.4319V20.7561ZM59.234 20.7561H50.0934V29.4044H59.234V20.7561Z" fill="#2396ED"/>
</svg>
