<svg width="31" height="22" viewBox="0 0 31 22" fill="none" xmlns="http://www.w3.org/2000/svg">
<g clip-path="url(#clip0_52_78)">
<path d="M30.9406 5.0802L20.0673 12.7967C18.8549 13.6549 17.2124 14.1369 15.5 14.1369C13.7876 14.1369 12.1451 13.6549 10.9327 12.7967L0.0594167 5.0802C0.0413333 5.22503 0 5.35612 0 5.50003V16.5C0.00205098 17.7152 0.683139 18.8801 1.89387 19.7393C3.1046 20.5986 4.74611 21.0819 6.45833 21.0834H24.5417C26.2539 21.0819 27.8954 20.5986 29.1061 19.7393C30.3169 18.8801 30.9979 17.7152 31 16.5V5.50003C31 5.35612 30.9587 5.22503 30.9406 5.0802Z" fill="#c9c9c9"/>
<path d="M18.2409 11.5005L30.039 3.12671C29.4675 2.45417 28.6614 1.89749 27.6985 1.51038C26.7356 1.12326 25.6483 0.918772 24.5417 0.916626H6.45833C5.35166 0.918772 4.26444 1.12326 3.30153 1.51038C2.33863 1.89749 1.53253 2.45417 0.960999 3.12671L12.7591 11.5005C13.487 12.015 14.4726 12.3039 15.5 12.3039C16.5274 12.3039 17.513 12.015 18.2409 11.5005Z" fill="#c9c9c9"/>
</g>
<defs>
<clipPath id="clip0_52_78">
<rect width="31" height="22" fill="#c9c9c9"/>
</clipPath>
</defs>
</svg>
