<svg width="64" height="64" viewBox="0 0 64 64" fill="none" xmlns="http://www.w3.org/2000/svg">
<rect width="64" height="64" rx="32" fill="black"/>
<path d="M52 42.8797C51.4178 43.0983 50.7749 43.0979 50.193 42.8786C49.611 42.6594 49.1303 42.2364 48.8418 41.6898C47.0292 39.0013 45.0276 36.4342 43.1038 33.8119L42.2696 32.7101C39.9788 35.7511 37.688 38.6708 35.5974 41.7009C35.3251 42.2233 34.8704 42.6298 34.318 42.8447C33.7657 43.0595 33.1533 43.0681 32.595 42.8688L41.191 31.4431L33.1954 21.1189C33.771 20.913 34.4006 20.9102 34.978 21.111C35.5554 21.3117 36.0452 21.7037 36.3648 22.2207C38.2218 24.9094 40.2792 27.4765 42.3252 30.1981C44.3826 27.4985 46.4176 24.9203 48.3192 22.2538C48.5929 21.7398 49.0479 21.3435 49.5974 21.1404C50.147 20.9372 50.7527 20.9413 51.2994 21.152L48.1968 25.2288C46.8068 27.0467 45.439 28.8757 43.9934 30.6497C43.8769 30.753 43.7837 30.8795 43.7199 31.021C43.6561 31.1624 43.6231 31.3156 43.6231 31.4705C43.6231 31.6255 43.6561 31.7787 43.7199 31.9201C43.7837 32.0616 43.8769 32.1881 43.9934 32.2914C46.6512 35.7842 49.2866 39.2879 52 42.8797ZM12 31.2998C12.2336 30.1981 12.378 28.997 12.7006 27.8732C14.6244 21.0971 22.4642 18.2763 27.8576 22.4744C31.0158 24.9315 31.8054 28.4132 31.6498 32.3356H13.8572C13.568 39.3432 18.6722 43.5741 25.1998 41.4145C26.2587 41.0393 27.2066 40.4086 27.958 39.5795C28.7093 38.7504 29.2404 37.749 29.5034 36.6656C29.8482 35.5638 30.4042 35.3766 31.4606 35.696C31.2866 37.0374 30.8079 38.3222 30.0606 39.4538C29.3133 40.5855 28.3168 41.5346 27.146 42.2298C25.2116 43.2781 22.9921 43.6934 20.805 43.4164C18.6179 43.1393 16.5752 42.1841 14.9692 40.6873C13.3803 38.9171 12.4196 36.6805 12.2336 34.3188C12.2336 33.9443 12.089 33.5696 12.0112 33.217C12.0038 32.578 12.0001 31.9389 12 31.2998ZM13.8794 30.826H29.9706C29.8704 25.7468 26.6344 22.1438 22.3198 22.1109C17.5158 22.0447 14.0796 25.5704 13.8682 30.804L13.8794 30.826Z" fill="white"/>
</svg>
