<svg width="56" height="39" viewBox="0 0 56 39" fill="none" xmlns="http://www.w3.org/2000/svg">
<path fill-rule="evenodd" clip-rule="evenodd" d="M56 0H0V38.0513H56V0ZM46.7946 29.6289C47.6784 30.9412 48.6635 31.3245 50.2564 30.9239C49.4291 29.8341 48.6086 28.7508 47.7922 27.6729C45.675 24.8775 43.5855 22.1187 41.4779 19.3798C40.9748 18.7271 40.884 18.2782 41.4464 17.5875C42.6191 16.1487 43.7456 14.6737 44.8716 13.1993C45.2617 12.6885 45.6517 12.1778 46.0436 11.6687C46.8462 10.6247 47.6453 9.57545 48.4522 8.516C48.7796 8.0861 49.1083 7.65452 49.439 7.22093C47.9264 6.78583 47.0217 7.23475 46.1798 8.41575C44.6645 10.5228 43.0853 12.5721 41.4753 14.6615C40.8583 15.4622 40.2367 16.2688 39.6125 17.0868C38.9572 16.2197 38.3012 15.3665 37.6501 14.5195C36.0765 12.4726 34.5311 10.4623 33.0906 8.38122C32.1684 7.04827 31.1274 6.89978 29.6218 7.18985L38.3759 18.4577L28.972 30.9343C30.537 31.3521 31.4173 30.8376 32.2557 29.6566C33.8526 27.4051 35.5209 25.2129 37.213 22.9894C38.0046 21.9492 38.8014 20.9022 39.5985 19.839C39.6784 19.9431 39.7548 20.0422 39.8282 20.1375C40.079 20.463 40.296 20.7446 40.5068 21.0304C41.0851 21.8119 41.6692 22.5896 42.2533 23.3671C43.8035 25.431 45.3534 27.4944 46.7946 29.6289ZM6.69413 17.0615C6.62288 17.4587 6.55165 17.8559 6.47202 18.2505C6.47202 18.9504 6.46852 19.6503 6.46154 20.3501C6.48712 20.4755 6.51498 20.6006 6.54284 20.7256C6.60626 21.0104 6.66966 21.295 6.70607 21.5829C7.05539 24.1832 7.84487 26.5901 9.70327 28.5239C12.8507 31.8148 18.8346 32.5814 23.0265 30.2125C25.8211 28.631 27.159 26.1032 27.7494 23.0782C26.5966 22.7328 25.9783 22.9228 25.6045 24.1348C24.8675 26.5521 23.3968 28.4859 20.8991 29.3147C13.7799 31.6767 8.19419 27.0459 8.48762 19.3763H27.98C28.1511 15.1012 27.2918 11.3096 23.8335 8.61949C17.9299 4.0336 9.33648 7.11043 7.24053 14.5107C7.00181 15.3461 6.84792 16.2041 6.69413 17.0615ZM26.139 17.736H8.52256C8.74962 12.0209 12.5153 8.17402 17.7552 8.21546C22.5305 8.25 26.0237 12.1901 26.139 17.736Z" fill="white"/>
</svg>
