<svg width="32" height="32" viewBox="0 0 32 32" fill="none" xmlns="http://www.w3.org/2000/svg">
<path d="M31.2919 14.289L17.6003 0.597391C17.4128 0.409822 17.1902 0.261029 16.9452 0.159512C16.7002 0.0579958 16.4376 0.00574493 16.1725 0.00574493C15.9073 0.00574493 15.6447 0.0579958 15.3997 0.159512C15.1547 0.261029 14.9321 0.409822 14.7446 0.597391L11.9026 3.43939L15.509 7.04579C16.3479 6.75179 17.3083 6.95269 17.9766 7.62105C18.2948 7.93978 18.5169 8.34156 18.6176 8.78051C18.7183 9.21945 18.6935 9.67787 18.546 10.1034L22.0221 13.5795C22.8629 13.2894 23.8331 13.4766 24.5044 14.1498C24.7276 14.373 24.9046 14.638 25.0253 14.9297C25.1461 15.2213 25.2082 15.5338 25.2081 15.8495C25.2081 16.1651 25.1459 16.4777 25.0251 16.7692C24.9042 17.0608 24.7271 17.3258 24.5039 17.5489C24.2807 17.7721 24.0157 17.9491 23.7241 18.0699C23.4324 18.1906 23.1199 18.2527 22.8043 18.2527C22.4886 18.2526 22.1761 18.1904 21.8845 18.0696C21.5929 17.9488 21.3279 17.7717 21.1048 17.5485C20.3992 16.8428 20.2247 15.8041 20.5815 14.9348L17.3396 11.693V20.2239C17.575 20.3403 17.79 20.4938 17.9766 20.6786C18.1998 20.9017 18.3768 21.1667 18.4976 21.4582C18.6184 21.7498 18.6805 22.0623 18.6805 22.3779C18.6805 22.6935 18.6184 23.006 18.4976 23.2976C18.3768 23.5891 18.1998 23.8541 17.9766 24.0772C17.7535 24.3004 17.4885 24.4774 17.197 24.5982C16.9054 24.7189 16.5929 24.7811 16.2773 24.7811C15.9617 24.7811 15.6492 24.7189 15.3576 24.5982C15.0661 24.4774 14.8011 24.3004 14.578 24.0772C14.3546 23.8542 14.1773 23.5893 14.0564 23.2977C13.9354 23.0061 13.8732 22.6936 13.8732 22.3779C13.8732 22.0622 13.9354 21.7496 14.0564 21.4581C14.1773 21.1665 14.3546 20.9016 14.578 20.6786C14.8102 20.4473 15.068 20.2719 15.3649 20.1543V11.544C15.0788 11.4264 14.8102 11.2529 14.578 11.0197C14.2405 10.6827 14.0111 10.2528 13.919 9.78484C13.8268 9.3169 13.8761 8.83212 14.0605 8.39231L10.5031 4.83687L1.11475 14.2155C0.927034 14.403 0.778117 14.6256 0.676514 14.8707C0.57491 15.1158 0.522614 15.3785 0.522614 15.6438C0.522614 15.9091 0.57491 16.1718 0.676514 16.4169C0.778117 16.662 0.927034 16.8847 1.11475 17.0722L14.8073 30.7628C14.9948 30.9503 15.2174 31.0991 15.4624 31.2006C15.7074 31.3022 15.97 31.3544 16.2352 31.3544C16.5004 31.3544 16.763 31.3022 17.008 31.2006C17.253 31.0991 17.4756 30.9503 17.663 30.7628L31.2919 17.1555C31.4796 16.968 31.6285 16.7453 31.7301 16.5002C31.8317 16.2551 31.884 15.9924 31.884 15.7271C31.884 15.4618 31.8317 15.1991 31.7301 14.954C31.6285 14.7089 31.4796 14.4863 31.2919 14.2988" fill="#F03C2E"/>
</svg>
