<svg width="27" height="27" viewBox="0 0 27 27" fill="currentColor" xmlns="http://www.w3.org/2000/svg">
<path fill-rule="evenodd" clip-rule="evenodd" d="M15.6164 18.6771C18.247 18.3665 21.045 17.41 21.045 12.8662C21.045 11.5748 20.5902 10.5223 19.8495 9.70908C19.969 9.39848 20.3512 8.22651 19.7053 6.60055C19.7053 6.60055 18.7488 6.28952 16.5012 7.79599C15.5447 7.53321 14.4926 7.36551 13.5121 7.36551C12.5074 7.36551 11.4549 7.53321 10.5222 7.79599C8.25035 6.28952 7.29385 6.60055 7.29385 6.60055C6.64833 8.22651 7.03107 9.39848 7.15052 9.70908C6.40902 10.5222 5.95466 11.5748 5.95466 12.8662C5.95466 17.41 8.75259 18.3665 11.3832 18.6771C11.0487 18.9647 10.7377 19.5142 10.6182 20.2796C9.94839 20.5664 8.20257 21.1166 7.15052 19.2991C7.15052 19.2991 6.52852 18.1754 5.35692 18.1037C5.35692 18.1037 4.18495 18.0798 5.26131 18.8205C5.26131 18.8205 6.05021 19.1797 6.57666 20.5424C6.57666 20.5424 7.29385 22.8147 10.5939 22.097V24.1296C10.5939 24.441 10.355 24.7994 9.75728 24.7038C5.06983 23.1492 1.69805 18.701 1.69805 13.4879C1.69805 6.95899 6.98288 1.67421 13.5121 1.67421C20.0168 1.67421 25.3258 6.95904 25.302 13.4879C25.302 18.701 21.9298 23.1253 17.2427 24.7038C16.6445 24.8233 16.4056 24.465 16.4056 24.1296V20.8538C16.4057 19.7531 16.0464 19.0363 15.6164 18.6771ZM27 13.5121C27 6.05021 20.9494 0 13.5121 0C6.05021 0 0 6.05021 0 13.5121C0 20.9494 6.05021 27 13.5121 27C20.9494 27 27 20.9494 27 13.5121Z" fill="currentColor"/>
</svg>
