<svg width="23" height="22" viewBox="0 0 23 22" fill="none" xmlns="http://www.w3.org/2000/svg">
<g clip-path="url(#clip0_54_37)">
<path d="M11.1127 1.99734C14.0309 1.99734 14.377 2.00827 15.5291 2.0611C16.7205 2.11575 17.9473 2.38717 18.8153 3.25516C19.6915 4.13134 19.9547 5.34635 20.0094 6.54132C20.0622 7.69348 20.0731 8.03958 20.0731 10.9578C20.0731 13.876 20.0622 14.2221 20.0094 15.3742C19.9556 16.5592 19.6778 17.7979 18.8153 18.6604C17.9391 19.5366 16.725 19.7998 15.5291 19.8545C14.377 19.9073 14.0309 19.9182 11.1127 19.9182C8.19448 19.9182 7.84837 19.9073 6.69622 19.8545C5.52037 19.8007 4.2653 19.5165 3.41006 18.6604C2.53842 17.7888 2.27065 16.5619 2.216 15.3742C2.16317 14.2221 2.15224 13.876 2.15224 10.9578C2.15224 8.03958 2.16317 7.69348 2.216 6.54132C2.26974 5.36092 2.55026 4.11495 3.41006 3.25516C4.28442 2.38079 5.50398 2.11575 6.69622 2.0611C7.84837 2.00827 8.19448 1.99734 11.1127 1.99734ZM11.1127 0.0281982C8.14438 0.0281982 7.77187 0.0409494 6.60605 0.0937757C4.91652 0.171194 3.23883 0.641165 2.01745 1.86255C0.791511 3.08848 0.326093 4.76253 0.248675 6.45115C0.195849 7.61697 0.183098 7.98948 0.183098 10.9578C0.183098 13.9261 0.195849 14.2986 0.248675 15.4644C0.326093 17.1521 0.797887 18.8344 2.01745 20.053C3.24247 21.278 4.91925 21.7444 6.60605 21.8218C7.77187 21.8746 8.14438 21.8874 11.1127 21.8874C14.081 21.8874 14.4535 21.8746 15.6193 21.8218C17.3079 21.7444 18.9874 21.2735 20.2079 20.053C21.4348 18.8262 21.8993 17.153 21.9767 15.4644C22.0295 14.2986 22.0423 13.9261 22.0423 10.9578C22.0423 7.98948 22.0295 7.61697 21.9767 6.45115C21.8993 4.76162 21.4284 3.08302 20.2079 1.86255C18.9847 0.639344 17.3034 0.170283 15.6193 0.0937757C14.4535 0.0409494 14.081 0.0281982 11.1127 0.0281982Z" fill="white"/>
<path d="M11.1127 5.34546C8.01323 5.34546 5.50034 7.85835 5.50034 10.9578C5.50034 14.0572 8.01323 16.5701 11.1127 16.5701C14.2121 16.5701 16.725 14.0572 16.725 10.9578C16.725 7.85835 14.2121 5.34546 11.1127 5.34546ZM11.1127 14.601C9.10072 14.601 7.46948 12.9698 7.46948 10.9578C7.46948 8.94584 9.10072 7.3146 11.1127 7.3146C13.1246 7.3146 14.7559 8.94584 14.7559 10.9578C14.7559 12.9698 13.1246 14.601 11.1127 14.601Z" fill="white"/>
<path d="M16.9472 6.43474C17.6716 6.43474 18.2588 5.84754 18.2588 5.12319C18.2588 4.39885 17.6716 3.81165 16.9472 3.81165C16.2229 3.81165 15.6357 4.39885 15.6357 5.12319C15.6357 5.84754 16.2229 6.43474 16.9472 6.43474Z" fill="white"/>
</g>
<defs>
<clipPath id="clip0_54_37">
<rect width="21.8592" height="21.8592" fill="white" transform="translate(0.183098 0.0281982)"/>
</clipPath>
</defs>
</svg>
