<svg width="29" height="32" viewBox="0 0 29 32" fill="none" xmlns="http://www.w3.org/2000/svg">
<g clip-path="url(#clip0_8_64)">
<path d="M0.314117 0.34613H28.2419V31.0143H0.314117V0.34613Z" fill="#F0DB4F"/>
<path d="M25.9563 23.6998C25.7517 22.3007 24.9209 21.1255 22.46 20.0297C21.6051 19.5983 20.652 19.2894 20.368 18.578C20.2672 18.164 20.2538 17.9307 20.3176 17.6801C20.5008 16.8668 21.3849 16.6132 22.0856 16.8464C22.537 17.0125 22.9642 17.3945 23.2219 18.0037C24.427 17.1468 24.4246 17.1524 25.2661 16.5635C24.958 16.039 24.7936 15.7969 24.5919 15.5725C23.8671 14.6835 22.8794 14.2256 21.2999 14.2606L20.4771 14.3775C19.6887 14.5963 18.9373 15.0507 18.4967 15.66C17.1747 17.3072 17.5517 20.1902 19.1604 21.3766C20.7453 22.6829 23.0735 22.9801 23.3709 24.2015C23.6602 25.6969 22.3701 26.181 21.0877 26.009C20.1427 25.7932 19.6171 25.2657 19.0489 24.3066C18.003 24.9713 18.003 24.9713 16.9277 25.6504C17.1827 26.2626 17.4506 26.5397 17.8781 27.07C19.9011 29.3234 24.9636 29.2127 25.8715 25.802C25.9084 25.6849 26.1529 24.9039 25.9563 23.6998ZM15.4966 14.4412H12.8844L12.8736 21.8573C12.8736 23.4345 12.9479 24.8804 12.7144 25.3236C12.3322 26.1952 11.3419 26.0872 10.8906 25.9181C10.4312 25.6702 10.1976 25.3177 9.92702 24.8194C9.85273 24.6763 9.79695 24.5656 9.77821 24.557L7.65436 25.9853C8.00752 26.7812 8.52777 27.4721 9.19415 27.9209C10.1896 28.5769 11.5275 28.7781 12.9267 28.4253C13.8374 28.134 14.6231 27.5306 15.0345 26.6122C15.6293 25.4081 15.5017 23.9507 15.4963 22.3387C15.5097 19.7088 15.4966 17.0794 15.4966 14.4412Z" fill="#323330"/>
</g>
<defs>
<clipPath id="clip0_8_64">
<rect width="28.556" height="31.3578" fill="white" transform="translate(0 0.00119781)"/>
</clipPath>
</defs>
</svg>
