<svg width="30" height="31" viewBox="0 0 30 31" fill="none" xmlns="http://www.w3.org/2000/svg">
<g clip-path="url(#clip0_36_22)">
<path d="M15.0625 0.468503C14.8101 0.482568 14.5629 0.55137 14.3352 0.670873L4.40659 5.88006C4.14964 6.01483 3.92387 6.2109 3.74604 6.45373C3.56821 6.69655 3.44289 6.97989 3.37939 7.28269L0.930314 18.9839C0.873771 19.2535 0.867443 19.5326 0.911705 19.8049C0.955968 20.0772 1.04992 20.337 1.18801 20.569C1.22151 20.6258 1.25755 20.6807 1.29599 20.7337L8.16778 30.1162C8.34565 30.359 8.57146 30.555 8.82843 30.6897C9.0854 30.8244 9.36694 30.8944 9.65213 30.8943L20.6724 30.8914C20.9575 30.8916 21.239 30.8219 21.4959 30.6874C21.7529 30.553 21.9788 30.3572 22.1568 30.1147L29.0261 20.731C29.2041 20.4881 29.3295 20.2047 29.393 19.9017C29.4566 19.5988 29.4566 19.2841 29.3931 18.9812L26.9398 7.27999C26.8763 6.97715 26.751 6.69376 26.5732 6.4509C26.3954 6.20803 26.1696 6.01191 25.9126 5.87712L15.9831 0.670873C15.6966 0.52053 15.3801 0.450944 15.0625 0.468503Z" fill="#326CE5"/>
<path d="M15.1561 4.77884V4.78122C14.8277 4.78454 14.5617 5.09881 14.5617 5.48773C14.5617 5.49438 14.5628 5.50009 14.5628 5.50532C14.5624 5.55809 14.5602 5.6218 14.5617 5.66792C14.5695 5.89281 14.6153 6.06444 14.6432 6.27055C14.6811 6.60811 14.6911 6.87603 14.6931 7.14703L14.7012 7.10804C14.6976 6.91811 14.6888 6.72832 14.6748 6.53894C14.7059 6.83086 14.7284 7.10091 14.7163 7.34529C14.713 7.26803 14.7027 7.18435 14.7016 7.11185L14.6936 7.15083C14.6943 7.23332 14.715 7.33863 14.709 7.4178C14.6954 7.48674 14.6441 7.53547 14.6048 7.59419L14.5992 7.62295C14.6378 7.56899 14.6782 7.5174 14.7018 7.45678C14.6719 7.55734 14.6081 7.64601 14.5441 7.71685C14.5619 7.68737 14.5767 7.65457 14.5976 7.62533L14.6034 7.5968C14.5711 7.64506 14.5528 7.70544 14.5175 7.74181L14.5162 7.74324L14.5019 8.00949C14.1418 8.04112 13.7842 8.09959 13.4317 8.18445C11.9459 8.54227 10.5943 9.36466 9.55 10.5462C9.48396 10.4982 9.37151 10.4131 9.33805 10.3865L9.33693 10.3853L9.3347 10.3858C9.22806 10.401 9.12275 10.435 8.98442 10.3494C8.71959 10.1592 8.47774 9.89605 8.18479 9.57917C8.0507 9.42774 7.95343 9.28297 7.79346 9.13677C7.75709 9.10325 7.70198 9.05832 7.66138 9.02432C7.54272 8.92233 7.39648 8.86359 7.24416 8.85673C7.0601 8.85007 6.88272 8.92662 6.76671 9.08185C6.56033 9.35761 6.62659 9.77909 6.91351 10.0232L6.92244 10.0294C6.96126 10.0634 7.00945 10.1069 7.04559 10.1354C7.2156 10.2688 7.37066 10.3373 7.53867 10.4428C7.8943 10.6767 8.18792 10.8702 8.42129 11.1034C8.51098 11.205 8.52704 11.3863 8.53954 11.466V11.4679L8.72851 11.6471C7.71091 13.2812 7.23925 15.2985 7.51658 17.3539L7.27049 17.4309L7.2696 17.4323C7.20378 17.5229 7.11074 17.6634 7.01637 17.705C6.7116 17.8072 6.36756 17.8448 5.95213 17.8911C5.75758 17.9085 5.58935 17.8985 5.38186 17.9403C5.33612 17.9499 5.27254 17.967 5.22278 17.9793L5.21765 17.9808L5.20873 17.9834C4.85621 18.0744 4.62864 18.4201 4.70227 18.7612C4.77523 19.1023 5.12015 19.3094 5.47512 19.2278L5.48382 19.2264H5.48427C5.48873 19.2252 5.49275 19.2229 5.49543 19.2221C5.54451 19.2107 5.60609 19.1981 5.64937 19.1855C5.85307 19.1273 6.00055 19.0422 6.18327 18.9678C6.57595 18.8175 6.90124 18.692 7.21783 18.6433C7.34768 18.6324 7.48646 18.7293 7.55629 18.7709L7.55808 18.7719L7.8151 18.7251C8.4117 20.692 9.65933 22.2814 11.2389 23.2803L11.1319 23.5542L11.1325 23.5565C11.1713 23.6635 11.2137 23.8078 11.1854 23.9112C11.0703 24.2288 10.873 24.5647 10.6482 24.9396C10.5393 25.1127 10.4273 25.2475 10.3291 25.4462C10.3052 25.494 10.2756 25.5667 10.2528 25.6166C10.0989 25.9673 10.2117 26.3719 10.5078 26.5238C10.8057 26.6766 11.1749 26.5152 11.3349 26.1641L11.3364 26.1622V26.1598C11.3588 26.1106 11.3904 26.0462 11.4098 25.9996C11.4942 25.7937 11.5225 25.6176 11.5816 25.4193H11.581C11.7385 24.9978 11.8251 24.5571 12.0404 24.2835C12.0984 24.2098 12.1939 24.1808 12.2938 24.1523L12.296 24.1513L12.4299 23.8936C14.1924 24.6157 16.1427 24.621 17.9086 23.9084C17.947 23.9804 18.0152 24.114 18.0342 24.1485L18.0351 24.1499L18.0369 24.1508C18.1391 24.1863 18.2484 24.2039 18.3381 24.3448C18.4992 24.6389 18.6098 24.9874 18.7446 25.4086C18.8037 25.6064 18.8332 25.783 18.9175 25.9889C18.9369 26.0365 18.9688 26.1018 18.9911 26.1515C19.1506 26.5038 19.521 26.6657 19.8195 26.5129C20.1154 26.3607 20.2283 25.9566 20.0745 25.6059C20.0518 25.556 20.0203 25.4828 19.9969 25.435C19.8985 25.2363 19.7865 25.1029 19.6779 24.9299C19.4525 24.555 19.2667 24.244 19.1513 23.9262C19.1038 23.7634 19.1593 23.6637 19.1973 23.5565L19.1986 23.5532L19.1964 23.5508C19.1883 23.5384 19.1815 23.525 19.1763 23.5109C19.1668 23.4882 19.1579 23.4652 19.1495 23.442C19.1317 23.392 19.1138 23.3369 19.0996 23.3003C20.7412 22.2662 21.9522 20.6176 22.5221 18.7134C22.5995 18.7263 22.7296 18.7503 22.7719 18.7593L22.7742 18.7598L22.7762 18.7588C22.8659 18.6958 22.9457 18.6148 23.1053 18.6283C23.4219 18.677 23.7469 18.8028 24.1401 18.953C24.3223 19.0272 24.47 19.114 24.674 19.172C24.7172 19.1843 24.7788 19.196 24.8279 19.2074C24.8306 19.2081 24.8344 19.2103 24.8391 19.2114H24.8395L24.8484 19.2124C25.2032 19.2935 25.5483 19.0869 25.6213 18.7457C25.6942 18.4046 25.4671 18.0592 25.1144 17.9686C25.0637 17.9563 24.9914 17.9351 24.9415 17.9249C24.734 17.8831 24.566 17.8935 24.371 17.8762C23.956 17.8298 23.612 17.7922 23.3067 17.69C23.1847 17.6394 23.0966 17.4827 23.0528 17.4171L23.0515 17.4157L22.8137 17.342C22.9407 16.3575 22.8984 15.3566 22.6887 14.3883C22.4786 13.4103 22.1017 12.4816 21.577 11.6485C21.639 11.5886 21.7521 11.4819 21.7849 11.4498L21.7865 11.4484V11.446C21.7963 11.3319 21.7878 11.2154 21.8969 11.0908C22.1301 10.8579 22.4243 10.6637 22.7798 10.4302C22.948 10.3247 23.1042 10.2564 23.2737 10.1228C23.3125 10.0924 23.3647 10.0449 23.4049 10.0104C23.6918 9.76649 23.7583 9.34525 23.5517 9.06925C23.3453 8.7935 22.9453 8.76806 22.6586 9.01173C22.618 9.0462 22.5627 9.09065 22.5261 9.12417C22.3661 9.27108 22.2673 9.41562 22.1334 9.56705C21.8405 9.8844 21.5984 10.1485 21.3333 10.3387C21.2202 10.4086 21.0527 10.3846 20.9757 10.3796H20.9739L20.7499 10.5505C19.4614 9.11276 17.7089 8.19325 15.8214 8.01353C15.8158 7.92055 15.8111 7.82752 15.8071 7.73444V7.73254L15.8058 7.73111C15.7277 7.65195 15.6362 7.5861 15.613 7.4178V7.41732C15.5874 7.07785 15.6302 6.712 15.6799 6.27055C15.7078 6.06444 15.754 5.89257 15.7616 5.66792C15.7636 5.61657 15.7605 5.54264 15.7605 5.48773C15.7605 5.09667 15.4921 4.77884 15.1608 4.77884H15.1561ZM7.30819 8.87575C7.33988 8.8805 7.37066 8.88716 7.40145 8.89619C7.37083 8.88715 7.33968 8.88032 7.30819 8.87575ZM14.4116 9.70183L14.236 13.0133L14.2233 13.0202L14.2228 13.0233C14.2224 13.0352 14.2197 13.0459 14.2184 13.0573C14.2113 13.1286 14.1913 13.1978 14.1597 13.261C14.1512 13.2777 14.1427 13.2945 14.1327 13.3102C14.092 13.3734 14.0396 13.4269 13.9787 13.4676C13.9631 13.4783 13.9459 13.4866 13.9292 13.4956C13.8681 13.5268 13.802 13.545 13.7344 13.5494C13.7244 13.5501 13.7148 13.5527 13.7048 13.5527C13.6936 13.5527 13.6838 13.5475 13.6729 13.5465C13.5987 13.5388 13.5269 13.5141 13.4625 13.4743C13.4524 13.4681 13.4415 13.4645 13.4319 13.4578L13.4306 13.4631L13.4314 13.4578C13.4216 13.4514 13.4087 13.454 13.3993 13.4467L13.3966 13.4443L13.3917 13.4476L10.8436 11.5228C10.8643 11.5012 10.8864 11.4814 10.9076 11.46C11.1326 11.2321 11.3735 11.0227 11.6283 10.8336C11.6811 10.7944 11.7338 10.7547 11.7878 10.7171C12.0589 10.5288 12.3436 10.3636 12.6392 10.2232C12.6927 10.1977 12.7478 10.1747 12.8021 10.1507C13.0948 10.022 13.3964 9.91771 13.7043 9.83876C13.7311 9.83163 13.7574 9.82283 13.7846 9.81642C13.9131 9.78551 14.0439 9.76745 14.174 9.74534L14.1753 9.73939C14.1756 9.73939 14.1759 9.73939 14.1762 9.73939L14.1748 9.74534C14.2541 9.73202 14.3321 9.71206 14.4116 9.70183ZM15.9122 9.70231C15.9562 9.70801 15.9992 9.71847 16.0429 9.72537C16.2806 9.76269 16.516 9.81476 16.748 9.88131C16.8399 9.9077 16.9309 9.93599 17.0213 9.96689C17.2518 10.0452 17.4777 10.138 17.698 10.2446C17.7816 10.285 17.8642 10.3273 17.9461 10.3717C18.1637 10.49 18.3745 10.6219 18.5775 10.7668C18.6542 10.8215 18.7292 10.8786 18.8039 10.9373C18.9985 11.0899 19.1844 11.2545 19.3608 11.4303C19.3929 11.4622 19.4271 11.4914 19.4585 11.5242L16.9271 13.4365L16.9182 13.4329L16.916 13.4348C16.9059 13.4424 16.895 13.4455 16.8847 13.4524C16.8249 13.4927 16.7579 13.5198 16.688 13.5318C16.6708 13.5346 16.6538 13.5389 16.6366 13.5396C16.561 13.5428 16.4857 13.5285 16.4158 13.4978C16.3955 13.4891 16.3757 13.479 16.3566 13.4676C16.2915 13.4293 16.2348 13.3766 16.1902 13.3131C16.179 13.2967 16.1706 13.2784 16.1612 13.2608C16.1268 13.1958 16.1049 13.1241 16.0969 13.0499C16.0956 13.0368 16.0911 13.0254 16.0903 13.0121V13.0095L16.0878 13.0081L15.9122 9.70231ZM9.90966 12.7723L12.2367 14.9897L12.234 15.003L12.2362 15.0049C12.446 15.1992 12.475 15.5351 12.3016 15.7664C12.2954 15.7747 12.2864 15.7799 12.2798 15.7878C12.22 15.8584 12.1443 15.9116 12.0598 15.9423C12.0502 15.9459 12.0424 15.9525 12.0328 15.9554L12.0296 15.9558L12.027 15.967L9.04466 16.8846C9.0402 16.8406 9.0402 16.7967 9.0364 16.7527C9.01439 16.4884 9.00753 16.2229 9.01588 15.9577C9.01878 15.8657 9.02324 15.774 9.02993 15.6825C9.04891 15.4184 9.08296 15.1559 9.13189 14.8963C9.14974 14.7996 9.17049 14.7033 9.1928 14.6075C9.25215 14.3524 9.32591 14.1014 9.41368 13.8558C9.44492 13.7678 9.47838 13.6813 9.51364 13.595C9.61227 13.3512 9.72477 13.1141 9.85053 12.8849C9.87061 12.8479 9.88846 12.8089 9.90966 12.7723ZM20.3963 12.7739C20.4179 12.8115 20.4355 12.8509 20.4565 12.8887C20.5838 13.1197 20.6978 13.3586 20.7979 13.6043C20.8313 13.6865 20.8644 13.7693 20.8947 13.8529C20.9872 14.1081 21.0647 14.3692 21.1267 14.6346C21.1368 14.6762 21.1499 14.7168 21.1589 14.7589C21.3128 15.4725 21.3507 16.185 21.2878 16.8737L18.2906 15.9537L18.2881 15.9401L18.285 15.9392C18.2749 15.9363 18.2662 15.9311 18.2566 15.9275C18.1918 15.9041 18.132 15.8674 18.0804 15.8194C18.0674 15.807 18.0545 15.7949 18.0425 15.7813C17.9937 15.7248 17.9564 15.6581 17.9329 15.5855C17.9269 15.5669 17.9231 15.5479 17.9189 15.5286C17.9039 15.4591 17.9017 15.3871 17.9122 15.3166C17.9142 15.305 17.9144 15.2938 17.9166 15.2821C17.9189 15.2714 17.9251 15.2622 17.9278 15.2515C17.9528 15.1618 17.9988 15.0803 18.0614 15.0147C18.069 15.0068 18.0735 14.9966 18.0815 14.9893L18.0837 14.9869L18.0824 14.9797L20.3963 12.7739ZM22.4551 13.5596C22.5292 13.789 22.5932 14.022 22.6479 14.258C22.5934 14.0223 22.5291 13.7892 22.4551 13.5596ZM14.6855 15.1647H15.6364L16.2277 15.9525L16.0157 16.935L15.1612 17.3724L14.3051 16.9331L14.0925 15.9508L14.6855 15.1647ZM17.7482 17.8735C17.7883 17.8712 17.8278 17.8754 17.8671 17.8831L17.8702 17.8838L17.8754 17.8766L20.9605 18.4324C20.9462 18.4752 20.9277 18.5159 20.9125 18.5584C20.825 18.8033 20.7237 19.0423 20.6091 19.2742C20.5667 19.3605 20.523 19.4456 20.4768 19.5295C20.3516 19.7576 20.2136 19.9773 20.0634 20.1875C20.0092 20.2636 19.9536 20.338 19.8965 20.4112C19.7374 20.6148 19.5667 20.8079 19.3856 20.9894C19.3209 21.0545 19.2544 21.1177 19.1866 21.1796C18.9995 21.3515 18.8028 21.5112 18.5976 21.6578C18.5619 21.6833 18.5284 21.7113 18.4925 21.7361L17.2955 18.6535L17.2988 18.6483L17.2979 18.6457C17.2935 18.635 17.2921 18.6238 17.2883 18.6131C17.2656 18.5454 17.2554 18.4736 17.2582 18.4018C17.2591 18.3825 17.2596 18.3633 17.2622 18.3442C17.2733 18.269 17.2987 18.197 17.3368 18.1327C17.3468 18.1155 17.3586 18.1001 17.3702 18.0842C17.4121 18.0285 17.4636 17.9818 17.5219 17.9468C17.5315 17.9411 17.5396 17.9337 17.5494 17.9287C17.6139 17.8957 17.6812 17.8769 17.7482 17.8735ZM12.5475 17.8869L12.5504 17.8873C12.5571 17.8873 12.5638 17.8892 12.5709 17.8897C12.6696 17.8968 12.7645 17.9334 12.8444 17.9955C12.8601 18.0074 12.8741 18.0195 12.8882 18.0331C12.9617 18.1035 13.015 18.1946 13.0419 18.296C13.0437 18.3031 13.0468 18.31 13.0486 18.3174C13.0731 18.4312 13.0631 18.5503 13.0196 18.6576L13.0185 18.6604L13.0274 18.6723L11.8427 21.7239C11.8081 21.7002 11.7757 21.6735 11.7421 21.6491C11.5369 21.5024 11.3402 21.3428 11.153 21.171C11.0855 21.1089 11.0192 21.0453 10.9543 20.9801C10.7747 20.8003 10.6054 20.6091 10.4474 20.4077C10.3893 20.3335 10.3329 20.2581 10.2778 20.1816C10.1307 19.976 9.99507 19.7614 9.87173 19.5388C9.82314 19.451 9.77649 19.362 9.73184 19.2718C9.61894 19.0448 9.51866 18.8109 9.43153 18.5713C9.41591 18.5282 9.39717 18.4866 9.38245 18.4431L12.4406 17.8902L12.4457 17.8973L12.4489 17.8961C12.4817 17.8897 12.5142 17.8866 12.5475 17.8869ZM13.0597 18.528C13.055 18.5603 13.0475 18.5922 13.0374 18.6231C13.0477 18.5922 13.0546 18.5603 13.0597 18.528ZM15.1423 19.2278C15.1552 19.2274 15.1677 19.2309 15.1806 19.2314C15.2381 19.234 15.2948 19.2468 15.3484 19.2692C15.3605 19.2742 15.3734 19.2763 15.385 19.2825V19.283C15.4841 19.3331 15.5656 19.4155 15.6177 19.5183L15.619 19.5212H15.6309L17.1384 22.4245C17.0768 22.4464 17.0141 22.4656 16.9519 22.4854C16.8782 22.5088 16.8041 22.5307 16.7297 22.5512C16.6665 22.5688 16.6038 22.5869 16.54 22.6023C16.5124 22.6092 16.4843 22.6133 16.4562 22.6194C16.1489 22.6892 15.8372 22.7338 15.5236 22.7528C15.4611 22.7566 15.3991 22.7611 15.3366 22.763C15.0145 22.7723 14.6922 22.7546 14.3727 22.71C14.3103 22.7014 14.2478 22.6898 14.1858 22.6791C13.8791 22.6263 13.5767 22.5488 13.2811 22.4473C13.2527 22.4376 13.2237 22.4302 13.1954 22.42L14.6996 19.5226H14.7018L14.7034 19.5198C14.7092 19.5084 14.7179 19.4996 14.7244 19.4889C14.7599 19.4289 14.8058 19.3767 14.8596 19.3351C14.8781 19.3208 14.8971 19.3077 14.9176 19.2961C14.9765 19.2626 15.0409 19.2415 15.1072 19.2338C15.1193 19.2326 15.1302 19.2283 15.1423 19.2278Z" fill="white"/>
</g>
<defs>
<clipPath id="clip0_36_22">
<rect width="28.5581" height="30.4285" fill="white" transform="translate(0.882629 0.465843)"/>
</clipPath>
</defs>
</svg>
