<svg width="31" height="32" viewBox="0 0 31 32" fill="none" xmlns="http://www.w3.org/2000/svg">
<path d="M6.36083 0.0271244C6.31183 0.0462344 4.93493 0.830724 3.30152 1.76956C1.32241 2.90734 0.305904 3.50661 0.251514 3.56296C0.204964 3.61809 0.168214 3.68105 0.144204 3.74916C0.103289 3.88734 0.100349 24.0805 0.141754 24.2258C0.156699 24.2821 0.205454 24.3649 0.249554 24.4105C0.356374 24.5232 12.1722 31.3171 12.3158 31.3499C12.3824 31.3658 12.4572 31.3631 12.5314 31.3425C12.6926 31.3021 24.4776 24.5232 24.5825 24.4125C24.6253 24.3647 24.6743 24.2821 24.6903 24.226C24.7108 24.1591 24.7184 23.1039 24.7184 20.8805V17.6318L27.5913 15.9818C30.3 14.4243 30.4659 14.3268 30.5355 14.22L30.6065 14.1048V10.6055C30.6065 6.79623 30.6139 7.0106 30.4632 6.87291C30.4228 6.83714 29.0427 6.03183 27.3933 5.08196L24.3975 3.35912H24.0645L21.1336 5.04227C19.52 5.97033 18.1485 6.76389 18.0816 6.80701C18.015 6.85111 17.9354 6.93245 17.9028 6.99149L17.8435 7.09366L17.8303 10.3901L17.8185 13.6878L15.3981 15.0819C14.0668 15.8473 12.9587 16.4808 12.9352 16.4867C12.8923 16.4987 12.8893 16.1849 12.8893 10.125V3.74696L12.8256 3.63744C12.7458 3.50392 13.104 3.71682 9.50737 1.64951C6.49117 -0.0850856 6.56369 -0.0488256 6.36083 0.0271244ZM9.1335 2.55234C10.3952 3.27631 11.4277 3.87534 11.4277 3.88269C11.4277 3.89028 10.3213 4.52973 8.9691 5.30687L6.50906 6.7193L4.05342 5.30712C2.70421 4.52973 1.59852 3.89028 1.59852 3.88269C1.59852 3.87534 2.70225 3.23589 4.05171 2.46046L6.50146 1.05122L6.67051 1.14334C7.49298 1.61056 8.31397 2.08022 9.1335 2.55234ZM26.6922 5.80128C28.0205 6.56617 29.1196 7.19827 29.1299 7.20856C29.1578 7.2338 24.2853 10.0346 24.2186 10.0317C24.152 10.0297 19.3395 7.25462 19.3414 7.22081C19.3439 7.18235 24.1858 4.3967 24.2348 4.40429C24.2571 4.40968 25.3635 5.03884 26.6922 5.80128ZM3.67294 6.20553L6.01465 7.55377L6.02812 14.2293L6.04037 20.906L6.09746 20.9962C6.12735 21.0437 6.1837 21.1086 6.22486 21.1385C6.26357 21.1667 7.56672 21.9093 9.12027 22.7859L11.9427 24.3799V27.204C11.9427 28.7539 11.9321 30.0254 11.9189 30.0254C11.9089 30.0254 9.4689 28.6292 6.49852 26.9198L1.09872 23.8144L1.09137 14.2677L1.08672 4.72402L1.20677 4.79041C1.2761 4.82716 2.38448 5.46367 3.67269 6.20529L3.67294 6.20553ZM11.9427 10.9046V17.0563L11.8479 17.1183C11.7192 17.1997 7.02944 19.8954 7.01351 19.8954C7.00616 19.8954 7.00028 17.1181 7.00028 13.7231L7.00322 7.55352L9.45322 6.14428C10.8005 5.36886 11.9116 4.7397 11.9248 4.74435C11.9343 4.75023 11.9427 7.52266 11.9427 10.9046ZM21.2894 9.48976L23.7451 10.9017V13.7006C23.7451 16.3559 23.7424 16.4985 23.7019 16.483C23.6757 16.473 22.5646 15.8362 21.2316 15.0684L18.8036 13.6744V10.8765C18.8036 9.33615 18.8115 8.07758 18.8188 8.07758C18.8294 8.07758 19.9402 8.71262 21.2894 9.48976ZM29.6596 10.8586C29.6596 12.3908 29.6493 13.6545 29.639 13.6668C29.6214 13.6949 24.7645 16.4936 24.7336 16.4936C24.726 16.4936 24.7184 15.2355 24.7184 13.6949V10.897L27.1684 9.48682C28.5177 8.71262 29.6287 8.07758 29.639 8.07758C29.652 8.07758 29.6596 9.32831 29.6596 10.8586ZM23.1977 17.3788L12.4207 23.53L7.53316 20.75C7.53316 20.75 18.2994 14.523 18.3426 14.5392L23.1977 17.3788ZM23.7404 21.0114L23.7321 23.8147L18.3352 26.9203C15.3658 28.6294 12.9251 30.0257 12.9129 30.0257C12.8999 30.0257 12.8896 28.8845 12.8896 27.2042V24.3801L18.2992 21.2951C21.2715 19.5989 23.7139 18.2105 23.7269 18.2076C23.7375 18.2076 23.7421 19.4689 23.7402 21.0111L23.7404 21.0114Z" fill="#F0513F"/>
</svg>
