<svg width="23" height="23" viewBox="0 0 23 23" fill="none" xmlns="http://www.w3.org/2000/svg">
<path fill-rule="evenodd" clip-rule="evenodd" d="M20.5853 0.345093H2.4971C1.63117 0.345093 0.957748 1.02515 0.957748 1.99667V20.5527C0.957748 21.3299 1.63117 22.2042 2.4971 22.2042H20.5853C21.4512 22.2042 22.1247 21.5242 22.1247 20.5527V1.89952C22.2209 1.02515 21.5475 0.345093 20.5853 0.345093ZM7.2114 18.8039H4.03645V8.4087H7.2114V18.8039ZM5.67205 7.04856C4.70987 7.04856 3.84395 6.27134 3.84395 5.20267C3.84395 4.23118 4.61362 3.3568 5.67205 3.3568C6.63423 3.3568 7.50016 4.13402 7.50016 5.20267C7.50016 6.27134 6.73048 7.04856 5.67205 7.04856ZM19.046 18.8039H15.8707V13.7521C15.8707 12.5862 15.8707 10.9346 14.2351 10.9346C12.5995 10.9346 12.311 12.2948 12.311 13.6549V18.7068H9.23201V8.4087H12.2148V9.86597H12.311C12.792 9.08876 13.7541 8.21439 15.2935 8.21439C18.4684 8.21439 19.046 10.3517 19.046 13.1691V18.8039Z" fill="white"/>
</svg>
