<svg width="25" height="27" viewBox="0 0 25 27" fill="none" xmlns="http://www.w3.org/2000/svg">
<g clip-path="url(#clip0_52_81)">
<path d="M12.5 0C9.73826 0.00327555 7.0905 1.18959 5.13766 3.29867C3.18481 5.40774 2.08637 8.26732 2.08334 11.25C2.08334 17.1922 10.8333 25.3496 11.8271 26.2609L12.5 26.8751L13.1729 26.2609C14.1667 25.3496 22.9167 17.1922 22.9167 11.25C22.9136 8.26732 21.8152 5.40774 19.8624 3.29867C17.9095 1.18959 15.2617 0.00327555 12.5 0ZM12.5 16.875C11.4699 16.875 10.4629 16.5451 9.60641 15.927C8.7499 15.3089 8.08234 14.4304 7.68813 13.4026C7.29392 12.3748 7.19078 11.2438 7.39175 10.1526C7.59271 9.06147 8.08876 8.05919 8.81716 7.27252C9.54555 6.48585 10.4736 5.95012 11.4839 5.73308C12.4942 5.51604 13.5414 5.62743 14.4931 6.05318C15.4448 6.47892 16.2583 7.19989 16.8306 8.12492C17.4029 9.04994 17.7083 10.1375 17.7083 11.25C17.7067 12.7413 17.1574 14.171 16.181 15.2255C15.2046 16.28 13.8808 16.8732 12.5 16.875Z" fill="#c9c9c9"/>
<path d="M12.5 14.625C14.2259 14.625 15.625 13.114 15.625 11.25C15.625 9.38604 14.2259 7.875 12.5 7.875C10.7741 7.875 9.375 9.38604 9.375 11.25C9.375 13.114 10.7741 14.625 12.5 14.625Z" fill="#c9c9c9"/>
</g>
<defs>
<clipPath id="clip0_52_81">
<rect width="25" height="27" fill="#c9c9c9"/>
</clipPath>
</defs>
</svg>
