<svg width="32" height="18" viewBox="0 0 32 18" fill="none" xmlns="http://www.w3.org/2000/svg">
<path d="M17.8772 9C17.8772 13.9708 13.8757 18 8.93793 18C4.00147 18 0 13.9708 0 9C0 4.0292 4.00147 0 8.93925 0C13.8757 0 17.8772 4.0292 17.8772 9Z" fill="white"/>
<path d="M27.6841 8.99995C27.6841 13.6789 25.6833 17.4717 23.2151 17.4717C20.7469 17.4717 18.7461 13.6789 18.7461 8.99995C18.7461 4.32101 20.7469 0.528198 23.2151 0.528198C25.682 0.528198 27.6841 4.32101 27.6841 8.99995Z" fill="white"/>
<path d="M31.6948 8.99996C31.6948 13.1916 30.9909 16.5909 30.1233 16.5909C29.2556 16.5909 28.5517 13.1929 28.5517 8.99996C28.5517 4.807 29.2556 1.40906 30.1233 1.40906C30.9909 1.40906 31.6948 4.80832 31.6948 8.99996Z" fill="white"/>
</svg>
