<svg width="46" height="49" viewBox="0 0 46 49" fill="none" xmlns="http://www.w3.org/2000/svg">
<path d="M17.082 0.428711C17.6803 0.226433 18.3233 0.195027 18.9385 0.337891C19.5528 0.480573 20.1149 0.792037 20.5625 1.23633L20.7373 1.41797C21.1288 1.85581 21.4089 2.38307 21.5527 2.95508C21.7168 3.608 21.6957 4.29354 21.4932 4.93555L21.4941 4.93652C20.791 7.22097 20.4763 9.60748 20.5635 11.9961C20.7631 15.7455 21.9277 19.3806 23.9443 22.5479C25.9609 25.7149 28.7615 28.3071 32.0742 30.0742L32.0801 30.0781C35.0603 31.7725 38.4263 32.673 41.8545 32.6934H41.8564C42.5063 32.7024 43.141 32.8893 43.6924 33.2334C44.2438 33.5775 44.6907 34.0657 44.9844 34.6455C45.278 35.2254 45.4073 35.8752 45.3584 36.5234C45.3094 37.1715 45.0844 37.7941 44.707 38.3232L44.7051 38.3262C42.4114 41.4529 39.4118 43.9944 35.9512 45.7441C32.4906 47.4938 28.6659 48.4019 24.7881 48.3955C23.5305 48.3947 22.2747 48.3007 21.0312 48.1133H21.0293V48.1123C15.5817 47.2508 10.5806 44.586 6.82812 40.5439C3.07565 36.5019 0.788928 31.3169 0.333984 25.8203C-0.120952 20.3237 1.28245 14.8335 4.31934 10.2295C7.35606 5.62575 11.8505 2.17522 17.082 0.429688V0.428711ZM18.1758 3.41699C18.1445 3.41706 18.1135 3.42244 18.084 3.43262L18.0811 3.43359C14.8765 4.49702 11.968 6.30259 9.59277 8.70215C7.21761 11.1017 5.44186 14.0281 4.41113 17.2432C3.38051 20.4581 3.12386 23.871 3.66113 27.2041C4.19848 30.5374 5.51502 33.6974 7.50391 36.4258C9.4927 39.154 12.0977 41.3737 15.1064 42.9053C18.1154 44.4369 21.444 45.2367 24.8203 45.2393C28.1965 45.2418 31.5259 44.4479 34.5371 42.9209C37.5484 41.3939 40.1564 39.1765 42.1494 36.4512C42.1852 36.3999 42.2065 36.3398 42.21 36.2773C42.2135 36.2138 42.1989 36.1503 42.168 36.0947L42.1621 36.085L42.1582 36.0742C42.13 36.0113 42.0839 35.9579 42.0264 35.9199C41.9687 35.8819 41.9011 35.8606 41.832 35.8594V35.8584C37.8766 35.8353 33.9933 34.8014 30.5508 32.8535V32.8545C26.7571 30.8237 23.5526 27.8468 21.248 24.2129C18.9435 20.5789 17.6169 16.4108 17.3975 12.1133V12.1094C17.3006 9.36697 17.6645 6.62766 18.4746 4.00586C18.5011 3.91728 18.5041 3.82328 18.4824 3.7334C18.4605 3.643 18.4142 3.56009 18.3496 3.49316L18.3477 3.49023C18.326 3.46708 18.2996 3.44808 18.2705 3.43555C18.2413 3.42305 18.2095 3.41676 18.1777 3.41699H18.1758Z" fill="black" stroke="black" stroke-width="0.5"/>
</svg>
