<svg width="74" height="64" viewBox="0 0 74 64" fill="none" xmlns="http://www.w3.org/2000/svg">
<path d="M62.2084 43.5629C62.5202 43.3838 62.7795 43.1259 62.9601 42.815C63.1408 42.5041 63.2365 42.1512 63.2376 41.7916L63.2745 29.9277C63.2756 29.5681 63.3712 29.2151 63.5519 28.9041C63.7325 28.5932 63.9918 28.3352 64.3037 28.1562L70.7348 24.462C71.0465 24.2829 71.3998 24.1889 71.7593 24.1894C72.1187 24.1899 72.4718 24.285 72.7829 24.4651C73.094 24.6451 73.3523 24.9038 73.5319 25.2153C73.7115 25.5267 73.806 25.8798 73.806 26.2393V47.8085C73.806 48.1691 73.7108 48.5234 73.5301 48.8355C73.3494 49.1476 73.0895 49.4065 72.7768 49.5861L48.5058 63.5268C48.1957 63.7049 47.8445 63.7988 47.4869 63.7991C47.1294 63.7995 46.778 63.7063 46.4676 63.5288L27.4204 52.6344C27.1065 52.4553 26.8457 52.1963 26.6642 51.8839C26.4827 51.5714 26.387 51.2165 26.3869 50.8551V39.9791C26.3869 39.967 26.4013 39.959 26.4137 39.9647C26.4238 39.9711 26.4382 39.9647 26.4382 39.9503V39.9382C26.4382 39.9301 26.4422 39.9218 26.4506 39.9177L42.1381 30.9056C42.1525 30.8972 42.1461 30.8747 42.1297 30.8747C42.1253 30.8747 42.1212 30.873 42.1181 30.8699C42.115 30.8668 42.1133 30.8626 42.1133 30.8583L42.1441 20.1956C42.1456 19.8351 42.0519 19.4805 41.8726 19.1677C41.6933 18.8549 41.4346 18.5949 41.1227 18.414C40.8108 18.2331 40.4566 18.1376 40.0961 18.1373C39.7355 18.1369 39.3812 18.2317 39.0689 18.412L27.41 25.1306C27.0988 25.3098 26.7461 25.4041 26.387 25.4041C26.0279 25.4041 25.6752 25.3098 25.364 25.1306L13.6682 18.3962C13.3566 18.2166 13.0033 18.1222 12.6436 18.1224C12.284 18.1226 11.9308 18.2174 11.6194 18.3972C11.3081 18.5771 11.0495 18.8357 10.8697 19.1472C10.6898 19.4586 10.5951 19.8118 10.595 20.1714V39.4423C10.5954 39.8016 10.5013 40.1546 10.3223 40.466C10.1432 40.7774 9.8855 41.0363 9.5749 41.2167C9.26429 41.3972 8.91172 41.4928 8.55251 41.4941C8.1933 41.4954 7.84006 41.4022 7.52819 41.224L1.03738 37.5125C0.723054 37.333 0.461872 37.0735 0.280389 36.7603C0.0989071 36.4471 0.00359777 36.0915 0.0041528 35.7295L0.0618105 2.04588C0.0626432 1.68688 0.157752 1.33439 0.337619 1.02369C0.517486 0.712993 0.775802 0.454986 1.08671 0.275491C1.39763 0.0959964 1.75023 0.00130943 2.10924 0.000906649C2.46824 0.000503865 2.82105 0.0943994 3.13237 0.273196L25.366 13.0426C25.6767 13.2211 26.0287 13.315 26.387 13.315C26.7453 13.315 27.0973 13.2211 27.408 13.0426L49.635 0.27262C49.9468 0.0934007 50.3003 -0.000618872 50.66 3.06564e-06C51.0196 0.000625004 51.3728 0.0958666 51.684 0.276163C51.9952 0.456459 52.2534 0.715463 52.4329 1.02716C52.6123 1.33886 52.7065 1.69228 52.7061 2.05193V35.7433C52.7064 36.1037 52.6116 36.4579 52.4313 36.7699C52.251 37.082 51.9916 37.3411 51.6793 37.5209L40.0387 44.2248C39.7261 44.405 39.4665 44.6646 39.2863 44.9772C39.1061 45.2899 39.0116 45.6447 39.0124 46.0056C39.0132 46.3665 39.1093 46.7207 39.2909 47.0326C39.4726 47.3445 39.7333 47.6029 40.0468 47.7817L46.4679 51.4372C46.7782 51.6138 47.1292 51.7063 47.4862 51.7056C47.8433 51.7048 48.1939 51.6108 48.5035 51.4328L62.2084 43.5629ZM63.5553 13.3402C63.5556 13.7027 63.652 14.0587 63.8347 14.3719C64.0175 14.6851 64.28 14.9441 64.5955 15.1227C64.9111 15.3013 65.2683 15.393 65.6309 15.3885C65.9934 15.384 66.3483 15.2834 66.6593 15.097L72.8096 11.4069C73.1133 11.225 73.3646 10.9676 73.5392 10.6597C73.7138 10.3518 73.8057 10.004 73.806 9.65006V2.13006C73.8053 1.76766 73.7087 1.41189 73.5258 1.09902C73.3429 0.786145 73.0803 0.527347 72.7648 0.348993C72.4494 0.17064 72.0922 0.0791059 71.7299 0.0837183C71.3675 0.0883307 71.0128 0.188925 70.702 0.37525L64.5519 4.06534C64.2482 4.24723 63.9968 4.50467 63.8221 4.8126C63.6475 5.12053 63.5555 5.46845 63.5553 5.82246V13.3422V13.3402Z" fill="#007FFF"/>
</svg>
