<svg width="64" height="64" viewBox="0 0 64 64" fill="none" xmlns="http://www.w3.org/2000/svg">
<path d="M16.2773 15.76C17.8347 17.024 18.416 16.928 21.3387 16.7333L48.8907 15.08C49.4773 15.08 48.9893 14.4933 48.7947 14.3973L44.2187 11.0907C43.3413 10.4107 42.1733 9.62935 39.936 9.82401L13.256 11.7707C12.2853 11.8667 12.0907 12.3547 12.4773 12.744L16.2773 15.76ZM17.9307 22.1813V51.168C17.9307 52.728 18.7093 53.3093 20.464 53.2133L50.7413 51.4613C52.4933 51.3653 52.688 50.2933 52.688 49.0267V20.2347C52.688 18.9707 52.2027 18.288 51.1307 18.3867L19.488 20.2347C18.32 20.3307 17.9307 20.9147 17.9307 22.1813ZM47.824 23.736C48.016 24.6107 47.824 25.488 46.944 25.5867L45.4853 25.8773V47.2773C44.2187 47.96 43.0507 48.3467 42.0773 48.3467C40.52 48.3467 40.1307 47.8613 38.9627 46.4027L29.4187 31.4213V45.9173L32.44 46.5973C32.44 46.5973 32.44 48.3467 30.0027 48.3467L23.2853 48.736C23.0907 48.3467 23.2853 47.376 23.968 47.1813L25.72 46.696V27.5307L23.2853 27.336C23.0907 26.4587 23.5787 25.1947 24.9413 25.096L32.1467 24.6107L42.0773 39.7893V26.3627L39.544 26.072C39.352 25 40.1307 24.224 41.104 24.1253L47.824 23.736ZM11.016 9.14401L38.7653 7.10135C42.1707 6.80801 43.048 7.00535 45.192 8.56001L54.048 14.7867C55.5093 15.856 55.9973 16.1467 55.9973 17.3147V51.4613C55.9973 53.6027 55.2187 54.8667 52.4933 55.0613L20.2667 57.008C18.2213 57.104 17.248 56.8133 16.176 55.4507L9.65333 46.9867C8.48533 45.4293 8 44.264 8 42.8987V12.5467C8 10.7973 8.776 9.33868 11.016 9.14401Z" fill="white"/>
</svg>
