<svg width="64" height="64" viewBox="0 0 64 64" fill="none" xmlns="http://www.w3.org/2000/svg">
<rect width="64" height="64" rx="32" fill="#EFEFEF"/>
<mask id="mask0_449_49" style="mask-type:luminance" maskUnits="userSpaceOnUse" x="12" y="12" width="40" height="40">
<path d="M12 12H52V52H12V12Z" fill="white"/>
</mask>
<g mask="url(#mask0_449_49)">
<path d="M14.4069 13.7253L36.5399 12.0906C39.2587 11.8574 39.9573 12.0144 41.6667 13.2574L48.7319 18.2346C49.8971 19.0906 50.2853 19.3237 50.2853 20.2558V47.553C50.2853 49.2638 49.664 50.2757 47.4891 50.4302L21.7867 51.987C20.1547 52.064 19.3776 51.8309 18.5227 50.7418L13.32 43.976C12.3867 42.731 12 41.7989 12 40.7093V16.4453C12 15.0464 12.6213 13.88 14.4069 13.7253Z" fill="#EFEFEF"/>
<path fill-rule="evenodd" clip-rule="evenodd" d="M36.5399 12.091L14.4069 13.7257C12.6213 13.88 12 15.0469 12 16.4453V40.7093C12 41.7984 12.3867 42.7305 13.32 43.976L18.5227 50.7413C19.3776 51.8304 20.1547 52.064 21.7867 51.9865L47.4896 50.4304C49.6629 50.2757 50.2855 49.2638 50.2855 47.5534V20.256C50.2855 19.3721 49.9365 19.1173 48.9083 18.363L41.6667 13.2572C39.9575 12.0142 39.2587 11.8572 36.5399 12.0903V12.091ZM22.368 19.8092C20.2693 19.9504 19.7931 19.9824 18.6011 19.0133L15.5707 16.6028C15.2629 16.291 15.4176 15.9017 16.1936 15.824L37.4709 14.2693C39.2576 14.1134 40.1881 14.736 40.8869 15.28L44.536 17.9241C44.6919 18.0028 45.08 18.4681 44.6133 18.4681L22.64 19.7909L22.368 19.8092ZM19.9211 47.32V24.1468C19.9211 23.1349 20.232 22.6679 21.1623 22.5897L46.4 21.112C47.256 21.035 47.6427 21.579 47.6427 22.5893V45.608C47.6427 46.6201 47.4869 47.4761 46.0896 47.5534L21.9387 48.9534C20.5417 49.0304 19.9216 48.5653 19.9216 47.32H19.9211ZM43.7611 25.3893C43.9161 26.0894 43.7611 26.7893 43.0613 26.8693L41.8971 27.1001V44.2094C40.8864 44.7534 39.9559 45.064 39.1785 45.064C37.9355 45.064 37.6251 44.6748 36.6944 43.5093L29.0825 31.5333V43.12L31.4905 43.6654C31.4905 43.6654 31.4905 45.0654 29.5477 45.0654L24.1915 45.376C24.0357 45.064 24.1915 44.2869 24.7344 44.1321L26.1333 43.744V28.424L24.192 28.267C24.0359 27.5669 24.424 26.5561 25.512 26.4777L31.2587 26.091L39.1787 38.2217V27.4896L37.16 27.2576C37.0041 26.4005 37.6251 25.7776 38.4011 25.7017L43.7611 25.3893Z" fill="black"/>
</g>
</svg>
