<svg width="32" height="32" viewBox="0 0 32 32" fill="none" xmlns="http://www.w3.org/2000/svg">
<path d="M9.81676 27.2425L9.74576 27.1007C9.60401 26.817 9.60401 26.5332 9.67501 26.1785H2.01476L13.3635 6.035L18.1158 14.6175L19.676 13.4825L14.9238 4.9C14.853 4.75825 14.2855 3.90725 13.3635 3.90725C12.9378 3.90725 12.2995 4.049 11.803 4.971L0.312513 25.3275C0.241513 25.5405 -0.254987 26.4625 0.170513 27.2425C0.454263 27.6683 0.880013 28.0938 1.87301 28.0938H11.5193C10.5263 28.0938 10.0298 27.668 9.81676 27.2425Z" fill="#00C58E"/>
<path d="M31.6625 25.3975L22.4417 8.80025C22.3 8.6585 21.8035 7.73625 20.8812 7.73625C20.4557 7.73625 19.8175 7.949 19.321 8.80025L18.1152 10.7863V14.6165L20.8815 9.86425L30.0312 26.1778H26.5557C26.6139 26.5155 26.5642 26.8629 26.4137 27.1708L26.3427 27.2418C25.9172 28.0218 24.8532 28.0928 24.7115 28.0928H30.102C30.3147 28.0928 31.3077 28.022 31.8042 27.2418C32.017 26.887 32.159 26.2488 31.6625 25.3975Z" fill="#108775"/>
<path d="M26.6275 27.2425V27.1715L26.6985 27.0298C26.7692 26.746 26.8402 26.4623 26.7692 26.1785L26.4857 25.3275L19.2512 12.7023L18.1872 10.7873H18.1162L17.0522 12.7023L9.81774 25.3273L9.53424 26.1785C9.46552 26.5392 9.51524 26.9124 9.67599 27.2425C9.95974 27.668 10.3852 28.0938 11.3782 28.0938H24.8547C25.0675 28.0938 26.1315 28.0228 26.628 27.2425H26.6275ZM18.116 14.6173L24.7125 26.1785H11.5197L18.116 14.6173Z" fill="#2F495E"/>
</svg>
