<svg width="26" height="26" viewBox="0 0 26 26" fill="none" xmlns="http://www.w3.org/2000/svg">
<path d="M13.0001 23.8333C7.03091 23.8333 2.16675 18.9692 2.16675 13C2.16675 7.03082 7.03091 2.16666 13.0001 2.16666C18.9692 2.16666 23.8334 6.54332 23.8334 11.9167C23.8334 15.5025 20.9192 18.4167 17.3334 18.4167H15.4159C15.1126 18.4167 14.8742 18.655 14.8742 18.9583C14.8742 19.0883 14.9284 19.2075 15.0151 19.3158C15.4592 19.825 15.7084 20.4642 15.7084 21.125C15.7084 21.8433 15.4231 22.5322 14.9152 23.0401C14.4073 23.548 13.7184 23.8333 13.0001 23.8333ZM13.0001 4.33332C8.22258 4.33332 4.33341 8.22249 4.33341 13C4.33341 17.7775 8.22258 21.6667 13.0001 21.6667C13.3034 21.6667 13.5417 21.4283 13.5417 21.125C13.5384 20.9845 13.4845 20.8499 13.3901 20.7458C12.9459 20.2475 12.7076 19.6083 12.7076 18.9583C12.7076 18.24 12.9929 17.5512 13.5008 17.0432C14.0087 16.5353 14.6976 16.25 15.4159 16.25H17.3334C19.7276 16.25 21.6667 14.3108 21.6667 11.9167C21.6667 7.73499 17.7776 4.33332 13.0001 4.33332Z" fill="#51FFD0"/>
<path d="M7.04175 14.0833C7.93921 14.0833 8.66675 13.3558 8.66675 12.4583C8.66675 11.5609 7.93921 10.8333 7.04175 10.8333C6.14429 10.8333 5.41675 11.5609 5.41675 12.4583C5.41675 13.3558 6.14429 14.0833 7.04175 14.0833Z" fill="#51FFD0"/>
<path d="M10.2917 9.75C11.1892 9.75 11.9167 9.02246 11.9167 8.125C11.9167 7.22754 11.1892 6.5 10.2917 6.5C9.39429 6.5 8.66675 7.22754 8.66675 8.125C8.66675 9.02246 9.39429 9.75 10.2917 9.75Z" fill="#51FFD0"/>
<path d="M15.7083 9.75C16.6057 9.75 17.3333 9.02246 17.3333 8.125C17.3333 7.22754 16.6057 6.5 15.7083 6.5C14.8108 6.5 14.0833 7.22754 14.0833 8.125C14.0833 9.02246 14.8108 9.75 15.7083 9.75Z" fill="#51FFD0"/>
<path d="M18.9583 14.0833C19.8557 14.0833 20.5833 13.3558 20.5833 12.4583C20.5833 11.5609 19.8557 10.8333 18.9583 10.8333C18.0608 10.8333 17.3333 11.5609 17.3333 12.4583C17.3333 13.3558 18.0608 14.0833 18.9583 14.0833Z" fill="#51FFD0"/>
</svg>
