<svg width="64" height="64" viewBox="0 0 64 64" fill="none" xmlns="http://www.w3.org/2000/svg">
<path d="M46.9045 46.056C47.297 42.7895 47.1795 42.31 49.6125 42.8395L50.23 42.8935C52.101 42.9785 54.5485 42.5925 55.9865 41.9245C59.082 40.488 60.917 38.0905 57.8655 38.72C50.9035 40.1565 50.425 37.799 50.425 37.799C57.7765 26.8915 60.8495 13.045 58.1965 9.65549C50.9615 0.410988 38.438 4.78249 38.2285 4.89549L38.1615 4.90799C36.786 4.62249 35.2465 4.45199 33.517 4.42399C30.3665 4.37199 27.976 5.24999 26.1625 6.62499C26.1625 6.62499 3.821 -2.57951 4.8605 18.2005C5.0815 22.621 11.1965 51.6495 18.4905 42.8815C21.1565 39.6755 23.7325 36.9645 23.7325 36.9645C25.0115 37.814 26.5435 38.248 28.1495 38.092L28.274 37.986C28.235 38.384 28.252 38.7735 28.3235 39.2345C26.445 41.334 26.997 41.7025 23.2405 42.4755C19.4395 43.2585 21.6725 44.653 23.13 45.0175C24.8975 45.4595 28.986 46.0855 31.749 42.2185L31.639 42.6595C32.376 43.2495 32.3265 46.898 32.4305 49.5045C32.535 52.1115 32.7095 54.544 33.241 55.9785C33.7725 57.413 34.3995 61.1065 39.3365 60.0485C43.4625 59.1665 46.617 57.894 46.9045 46.056Z" fill="black"/>
<path d="M37.729 62.628C35.5455 62.628 34.1235 61.7835 33.26 60.968C31.9565 59.738 31.4395 58.1535 31.1305 57.207L30.997 56.812C30.375 55.133 30.164 52.7155 30.039 49.6025C30.02 49.135 30.007 48.6535 29.9925 48.143C29.982 47.7695 29.969 47.301 29.95 46.811C29.1634 47.1861 28.3284 47.4499 27.469 47.595C25.9295 47.858 24.2745 47.773 22.549 47.3415C21.3315 47.037 20.0665 46.406 19.3455 45.4315C17.244 47.272 15.2395 47.0225 14.1475 46.658C12.221 46.0155 10.497 44.21 8.87651 41.1395C7.72201 38.952 6.60551 36.102 5.55751 32.668C3.73251 26.688 2.57301 20.3895 2.47001 18.3215C2.14601 11.849 3.88851 7.22 7.64801 4.5645C13.5785 0.375498 22.564 2.839 25.84 3.9575C28.041 2.631 30.6305 1.9855 33.5565 2.032C35.128 2.0575 36.6245 2.1955 38.0145 2.4435C39.4645 1.9875 42.3285 1.333 45.607 1.374C51.6475 1.446 56.653 3.8 60.0815 8.1815C62.5285 11.3075 61.3185 17.872 60.38 21.507C59.059 26.62 56.7445 32.058 53.9015 36.792C54.6735 36.7975 55.792 36.705 57.382 36.3765C60.519 35.729 61.4365 37.411 61.6855 38.164C62.683 41.185 58.347 43.468 56.9945 44.096C55.2615 44.9005 52.436 45.3905 50.122 45.2845L50.021 45.278L49.413 45.2245L49.353 45.7315L49.295 46.227C49.1395 52.2265 48.2825 56.026 46.519 58.5365C44.6705 61.1685 42.1015 61.906 39.8385 62.391C39.0665 62.556 38.365 62.628 37.729 62.628ZM33.134 40.7925C34.5435 41.9205 34.667 44.043 34.7775 48.0095C34.7915 48.5045 34.8045 48.973 34.822 49.4105C34.875 50.7355 34.9995 53.838 35.4855 55.149C35.554 55.3345 35.6155 55.5225 35.6805 55.722C36.222 57.38 36.4935 58.2115 38.835 57.711C40.8005 57.2895 41.811 56.9115 42.602 55.7855C43.7515 54.1485 44.3945 50.8555 44.5125 45.998L46.904 46.056L44.529 45.771L44.599 45.178C44.8265 43.223 44.9905 41.811 46.297 40.877C47.3455 40.128 48.54 40.2005 49.4915 40.372C48.446 39.582 48.157 38.6555 48.08 38.2755L47.8805 37.293L48.441 36.4615C51.6695 31.6715 54.3315 25.7845 55.7455 20.3095C57.1985 14.684 56.7555 11.6965 56.3125 11.1315C50.448 3.638 40.2785 6.732 39.2165 7.083L39.037 7.18L38.137 7.3475L37.676 7.252C36.405 6.988 34.993 6.842 33.4795 6.8175C31.1015 6.7775 29.183 7.3395 27.61 8.533L26.5185 9.3605L25.252 8.839C22.546 7.7325 14.598 5.508 10.404 8.4785C8.07601 10.1275 7.01551 13.3585 7.25151 18.082C7.32951 19.6415 8.38901 25.545 10.137 31.2705C12.5525 39.183 14.7475 41.8115 15.664 42.117C15.824 42.171 16.239 41.8485 16.652 41.3525C18.3741 39.2882 20.1572 37.2757 21.999 35.3175L23.384 33.86L25.0585 34.9725C25.7335 35.421 26.478 35.6755 27.2425 35.7235L31.236 32.3175L30.6575 38.2215C30.6445 38.354 30.638 38.5345 30.69 38.8695L30.864 39.9885L30.109 40.8325L30.022 40.9305L32.216 41.943L33.134 40.7925Z" fill="black"/>
<path d="M57.8655 38.72C50.903 40.1565 50.4245 37.799 50.4245 37.799C57.776 26.891 60.849 13.044 58.197 9.6555C50.962 0.411499 38.4375 4.783 38.2285 4.8965L38.161 4.9085C36.7855 4.623 35.246 4.453 33.5155 4.425C30.365 4.3735 27.9755 5.251 26.162 6.626C26.162 6.626 3.82 -2.578 4.859 18.2015C5.08 22.6225 11.195 51.651 18.489 42.883C21.155 39.677 23.7305 36.966 23.7305 36.966C25.01 37.8155 26.5415 38.2495 28.147 38.0935L28.272 37.9875C28.233 38.3855 28.251 38.775 28.322 39.236C26.443 41.3355 26.995 41.704 23.2385 42.477C19.4375 43.26 21.6705 44.6545 23.1285 45.019C24.8955 45.461 28.9845 46.087 31.747 42.22L31.6365 42.661C32.373 43.251 32.89 46.497 32.8035 49.4395C32.717 52.382 32.6585 54.4025 33.239 55.9805C33.819 57.5585 34.397 61.1085 39.335 60.0505C43.461 59.1665 45.599 56.875 45.897 53.053C46.108 50.3355 46.5855 50.7375 46.616 48.308L46.9995 47.158C47.4415 43.4745 47.0695 42.2865 49.612 42.839L50.2295 42.893C52.1005 42.978 54.549 42.592 55.9865 41.924C59.0815 40.4885 60.917 38.0905 57.8655 38.72Z" fill="#336791"/>
<path d="M37.9785 61.1535C33.8625 61.1535 32.5585 57.894 32.025 56.561C31.244 54.6075 31.0755 47.0265 31.2495 40.8095C31.2521 40.7046 31.2754 40.6013 31.3181 40.5056C31.3607 40.4098 31.4219 40.3233 31.4982 40.2513C31.5744 40.1793 31.6641 40.123 31.7622 40.0858C31.8602 40.0486 31.9647 40.0312 32.0695 40.0345C32.1742 40.0373 32.2773 40.0608 32.373 40.1035C32.4686 40.1463 32.5549 40.2075 32.6269 40.2836C32.6989 40.3597 32.7551 40.4492 32.7925 40.5471C32.8298 40.645 32.8475 40.7493 32.8445 40.854C32.644 48.0245 32.9285 54.5225 33.5065 55.9685C34.4085 58.223 35.7765 60.195 39.644 59.3665C43.3155 58.579 44.6905 57.187 45.303 53.6365C45.773 50.912 46.7025 43.161 46.817 41.6315C46.8246 41.527 46.8528 41.425 46.9 41.3314C46.9471 41.2378 47.0123 41.1544 47.0917 41.086C47.1711 41.0177 47.2633 40.9656 47.3629 40.9329C47.4624 40.9002 47.5675 40.8875 47.672 40.8955C47.8829 40.9115 48.0788 41.0105 48.2168 41.1708C48.3548 41.3311 48.4236 41.5396 48.408 41.7505C48.2885 43.343 47.3635 51.079 46.8755 53.908C46.1525 58.1015 44.283 60.0035 39.9785 60.9265C39.247 61.083 38.5825 61.153 37.9785 61.1535ZM15.6605 45.233C15.3007 45.2318 14.9435 45.1728 14.6025 45.058C11.929 44.166 9.38248 39.812 7.03348 32.1155C5.24548 26.257 4.11248 20.142 4.01298 18.1545C3.71848 12.2625 5.23548 8.09399 8.52298 5.76549C15.0265 1.15749 25.967 5.54549 26.4295 5.73449C26.6254 5.81452 26.7815 5.9691 26.8635 6.16423C26.9454 6.35936 26.9465 6.57906 26.8665 6.77499C26.7865 6.97092 26.6319 7.12703 26.4367 7.20898C26.2416 7.29093 26.0219 7.29202 25.826 7.21199C25.7205 7.16899 15.2295 2.96599 9.44198 7.06949C6.63098 9.06249 5.34048 12.7655 5.60598 18.075C5.68948 19.7495 6.74798 25.7175 8.55898 31.6495C10.656 38.5205 13.0425 42.856 15.107 43.5445C15.431 43.6525 16.417 43.981 17.8265 42.286C19.4701 40.3118 21.1755 38.3899 22.94 36.523C23.0876 36.3757 23.287 36.2921 23.4956 36.29C23.7041 36.2879 23.9051 36.3676 24.0557 36.5118C24.2062 36.6561 24.2943 36.8536 24.3011 37.062C24.3079 37.2704 24.2328 37.4732 24.092 37.627C24.068 37.652 21.6685 40.1605 19.0535 43.3065C17.815 44.796 16.628 45.233 15.6605 45.233ZM50.375 38.5105C50.2303 38.5103 50.0885 38.4708 49.9646 38.3962C49.8406 38.3216 49.7393 38.2148 49.6714 38.087C49.6035 37.9593 49.5716 37.8156 49.5791 37.6711C49.5866 37.5267 49.6332 37.387 49.714 37.267C57.1455 26.2395 59.754 12.915 57.52 10.06C54.708 6.46699 50.7375 4.59049 45.718 4.48199C42.0015 4.40199 39.0475 5.35099 38.5645 5.51649L38.443 5.56599C37.9575 5.71849 37.585 5.45249 37.4445 5.14149C37.3644 4.9633 37.3522 4.76196 37.4104 4.57545C37.4685 4.38893 37.5928 4.23012 37.76 4.12899C37.783 4.11549 37.856 4.08449 37.9745 4.04099C38.795 3.74049 41.794 2.84049 45.5085 2.88299C51.0625 2.94199 55.6505 5.08349 58.7755 9.07699C60.254 10.9665 60.2575 15.3195 58.785 21.0205C57.284 26.833 54.4595 33.0795 51.0365 38.159C50.8835 38.3875 50.6315 38.5105 50.375 38.5105ZM50.755 43.6155C49.486 43.6155 48.3485 43.4365 47.6675 43.0285C46.9675 42.609 46.834 42.039 46.8165 41.7365C46.6255 38.3815 48.4765 37.7975 49.4205 37.531C49.289 37.332 49.102 37.098 48.9085 36.8565C48.358 36.1685 47.604 35.2265 47.023 33.8175C46.932 33.5975 46.647 33.086 46.317 32.4935C44.5275 29.2845 40.804 22.607 43.196 19.1875C44.303 17.605 46.5075 16.982 49.7555 17.3295C48.8 14.4185 44.25 5.31249 33.4535 5.13549C30.2065 5.08149 27.5435 6.07999 25.5425 8.10049C21.0625 12.625 21.2245 20.8115 21.227 20.8935C21.2297 20.9982 21.2118 21.1025 21.1743 21.2003C21.1368 21.2981 21.0804 21.3875 21.0082 21.4636C20.9361 21.5396 20.8498 21.6006 20.7541 21.6432C20.6584 21.6859 20.5552 21.7092 20.4505 21.712C20.3458 21.7147 20.2415 21.6968 20.1437 21.6593C20.0459 21.6218 19.9564 21.5654 19.8804 21.4933C19.8044 21.4211 19.7433 21.3348 19.7007 21.2391C19.6581 21.1434 19.6347 21.0402 19.632 20.9355C19.622 20.572 19.455 11.981 24.409 6.97749C26.7275 4.63599 29.7795 3.47999 33.48 3.54049C40.387 3.65399 44.833 7.16549 47.346 10.091C50.0855 13.2795 51.4285 16.7965 51.539 17.9705C51.6215 18.8435 50.995 19.018 50.8685 19.044L50.5805 19.0505C47.393 18.54 45.348 18.8945 44.5025 20.1025C42.683 22.703 46.2055 29.0195 47.7095 31.717C48.0935 32.405 48.3705 32.9025 48.4975 33.2095C48.9915 34.4075 49.636 35.2125 50.1535 35.8595C50.609 36.4285 51.0035 36.922 51.1445 37.501C51.21 37.616 52.1395 38.991 57.655 37.8525C59.0375 37.5675 59.8665 37.811 60.12 38.5775C60.6185 40.085 57.8215 41.8435 56.273 42.5625C54.8855 43.2075 52.671 43.6155 50.755 43.6155ZM48.407 41.605C48.582 41.7815 49.4575 42.086 51.2705 42.008C52.8825 41.939 54.5825 41.5885 55.6025 41.115C56.907 40.509 57.778 39.8315 58.229 39.369L57.979 39.415C54.4525 40.143 51.958 40.046 50.565 39.1265C50.4713 39.0648 50.3812 38.9978 50.295 38.926C50.144 38.9855 50.0045 39.0245 49.905 39.0525C49.115 39.274 48.298 39.5035 48.407 41.605ZM25.626 46.0625C24.75 46.0625 23.828 45.943 22.8865 45.7075C21.911 45.4635 20.2665 44.729 20.2915 43.5225C20.32 42.169 22.2885 41.763 23.0295 41.6105C25.7065 41.059 25.881 40.838 26.7175 39.7755C26.9615 39.466 27.265 39.0805 27.679 38.6185C28.2935 37.9305 28.965 37.582 29.675 37.582C30.1695 37.582 30.575 37.7495 30.843 37.861C31.697 38.215 32.4095 39.071 32.7025 40.0945C32.967 41.018 32.8405 41.907 32.3475 42.5975C30.729 44.864 28.4045 46.0625 25.626 46.0625ZM22.015 43.591C22.2555 43.777 22.7375 44.0255 23.274 44.1595C24.0895 44.3635 24.8805 44.467 25.6265 44.467C27.8995 44.467 29.7245 43.526 31.05 41.67C31.3265 41.283 31.2435 40.7915 31.1695 40.533C31.0145 39.9915 30.6295 39.499 30.233 39.3345C30.018 39.2455 29.8395 39.1775 29.6755 39.1775C29.5875 39.1775 29.3195 39.1775 28.8685 39.682C28.5572 40.032 28.258 40.3925 27.9715 40.763C26.9295 42.086 26.452 42.535 23.352 43.1735C22.5955 43.3285 22.2075 43.4865 22.015 43.591ZM28.1495 39.911C27.959 39.9107 27.775 39.8423 27.6305 39.7181C27.4861 39.594 27.3909 39.4222 27.362 39.234C27.342 39.1016 27.3286 38.9682 27.322 38.8345C25.29 38.7965 23.3295 37.9245 21.841 36.3715C19.959 34.408 19.1025 31.6875 19.4915 28.908C19.914 25.8895 19.756 23.225 19.671 21.7935C19.6475 21.3955 19.6305 21.108 19.6315 20.909C19.633 20.6565 19.638 19.987 21.876 18.8525C22.672 18.449 24.268 17.745 26.0115 17.5645C28.9 17.266 30.804 18.5525 31.374 21.1875C32.9125 28.3015 31.496 31.448 30.4615 33.746C30.269 34.174 30.087 34.578 29.9415 34.9695L29.813 35.3145C29.2665 36.78 28.794 38.046 28.939 38.9915C28.9549 39.095 28.9503 39.2007 28.9253 39.3025C28.9004 39.4042 28.8557 39.5001 28.7937 39.5845C28.7317 39.669 28.6537 39.7404 28.5641 39.7947C28.4745 39.849 28.375 39.8851 28.2715 39.901L28.1495 39.911ZM21.232 21.13L21.263 21.6995C21.351 23.1865 21.515 25.9535 21.071 29.1295C20.7505 31.422 21.4505 33.6595 22.9925 35.2675C24.211 36.5385 25.8145 37.24 27.4625 37.24H27.4965C27.681 36.4625 27.9875 35.6415 28.3175 34.757L28.445 34.414C28.6095 33.972 28.802 33.544 29.006 33.091C30.0015 30.879 31.241 28.1255 29.8135 21.525C29.531 20.2175 28.8455 19.461 27.719 19.2115C25.405 18.7005 21.9565 20.441 21.232 21.13ZM26.047 20.7915C26.007 21.0735 26.5635 21.8265 27.2895 21.927C28.014 22.0285 28.634 21.4395 28.6735 21.1575C28.713 20.8755 28.157 20.5645 27.431 20.4635C26.705 20.3625 26.0855 20.5095 26.047 20.7915ZM27.456 22.2045L27.2525 22.1905C26.8025 22.128 26.3475 21.8445 26.036 21.4315C25.9265 21.2865 25.748 21.0055 25.7835 20.7545C25.834 20.3865 26.283 20.166 26.9835 20.166C27.14 20.166 27.303 20.1775 27.467 20.2005C27.85 20.2535 28.2055 20.364 28.468 20.5105C28.923 20.7645 28.9565 21.048 28.936 21.1945C28.88 21.601 28.2335 22.2045 27.456 22.2045ZM26.3115 20.8385C26.334 21.0125 26.765 21.5865 27.326 21.664L27.4565 21.673C27.9745 21.673 28.3615 21.2655 28.407 21.132C28.359 21.041 28.026 20.815 27.3945 20.727C27.2585 20.7078 27.1213 20.6979 26.984 20.6975C26.578 20.6975 26.3625 20.789 26.3115 20.8385ZM48.114 20.216C48.1535 20.498 47.5975 21.251 46.872 21.352C46.147 21.453 45.5265 20.8645 45.4865 20.5825C45.4485 20.3005 46.0045 19.989 46.7295 19.8885C47.4545 19.787 48.074 19.9345 48.114 20.216ZM46.7045 21.496C46.0065 21.496 45.404 20.953 45.3545 20.6005C45.297 20.1775 45.9935 19.856 46.7105 19.7565C46.8685 19.7345 47.025 19.7235 47.1755 19.7235C47.7945 19.7235 48.2045 19.905 48.2455 20.198C48.272 20.3875 48.1265 20.68 47.876 20.944C47.7105 21.1175 47.363 21.418 46.8895 21.4835L46.7045 21.496ZM47.176 19.9895C47.0373 19.9895 46.8946 19.9997 46.748 20.02C46.0275 20.1205 45.5975 20.4095 45.6185 20.5645C45.6425 20.735 46.1025 21.2305 46.705 21.2305L46.8535 21.22C47.247 21.1655 47.5425 20.9085 47.6835 20.7605C47.905 20.528 47.993 20.309 47.9825 20.2345C47.9685 20.1355 47.7025 19.9895 47.176 19.9895ZM49.1585 36.411C49.0139 36.4111 48.8721 36.3718 48.7481 36.2975C48.6242 36.2232 48.5228 36.1165 48.4548 35.989C48.3867 35.8614 48.3547 35.7178 48.362 35.5735C48.3694 35.4291 48.4159 35.2895 48.4965 35.1695C50.1955 32.632 49.8845 30.0445 49.584 27.542C49.4555 26.476 49.3235 25.3735 49.3575 24.3155C49.3925 23.227 49.531 22.329 49.6645 21.4605C49.823 20.4315 49.973 19.4595 49.911 18.3055C49.9053 18.2009 49.9203 18.0962 49.9552 17.9974C49.99 17.8986 50.0439 17.8076 50.1139 17.7297C50.1838 17.6517 50.2685 17.5883 50.3629 17.5431C50.4574 17.4978 50.5599 17.4716 50.6645 17.466C50.7691 17.4603 50.8738 17.4754 50.9726 17.5102C51.0714 17.545 51.1623 17.5989 51.2403 17.6689C51.3977 17.8102 51.4926 18.0082 51.504 18.2195C51.575 19.5385 51.4055 20.6385 51.2415 21.703C51.115 22.5245 50.984 23.374 50.9525 24.3665C50.922 25.3035 51.0415 26.2985 51.168 27.3515C51.488 30.0125 51.8505 33.0285 49.8225 36.057C49.7493 36.1659 49.6505 36.2552 49.5347 36.3169C49.4189 36.3787 49.2897 36.411 49.1585 36.411Z" fill="white"/>
</svg>
