<svg width="50" height="26" viewBox="0 0 50 26" fill="none" xmlns="http://www.w3.org/2000/svg">
<path fill-rule="evenodd" clip-rule="evenodd" d="M5 0C2.23859 0 0 2.23857 0 5V21C0 23.7614 2.23859 26 5 26H45C47.7614 26 50 23.7614 50 21V5C50 2.23857 47.7614 0 45 0H5ZM14.7308 17H16.7081L17.3555 15.0099H20.5066L21.1527 17H23.1299L20.1215 8.27273H17.7436L14.7308 17ZM20.0389 13.5696L18.9666 10.267H18.8984L17.824 13.5696H20.0389ZM24.1804 8.27273V17H26.0256V14.1705H27.5767C28.2471 14.1705 28.8182 14.0469 29.2898 13.7997C29.7642 13.5526 30.1264 13.2074 30.3764 12.7642C30.6264 12.321 30.7514 11.8097 30.7514 11.2301C30.7514 10.6506 30.6279 10.1392 30.3807 9.69602C30.1364 9.25 29.7812 8.90199 29.3154 8.65199C28.8494 8.39915 28.2855 8.27273 27.6236 8.27273H24.1804ZM26.0256 12.6918H27.2784C27.6335 12.6918 27.9261 12.6307 28.1562 12.5085C28.3892 12.3835 28.5625 12.2116 28.6761 11.9929C28.7926 11.7713 28.8508 11.517 28.8508 11.2301C28.8508 10.9403 28.7926 10.6875 28.6761 10.4716C28.5625 10.2528 28.3892 10.0838 28.1562 9.96449C27.9233 9.84233 27.6279 9.78125 27.2699 9.78125H26.0256V12.6918ZM33.7951 17V8.27273H31.95V17H33.7951Z" fill="#84EA2A"/>
</svg>
