<svg width="55" height="41" viewBox="0 0 55 41" fill="none" xmlns="http://www.w3.org/2000/svg">
<path fill-rule="evenodd" clip-rule="evenodd" d="M0 17.0965C0 17.4035 0.0906781 17.606 0.141493 17.803C0.472665 19.0836 1.18451 20.1826 2.02909 21.1851C3.232 22.6137 4.70519 23.7638 6.2143 24.8453C7.52322 25.7832 8.85886 26.7001 10.173 27.631C10.3986 27.7908 10.612 27.9746 10.8568 28.1706C10.6461 28.2842 10.4709 28.3841 10.2887 28.4763C8.55441 29.353 6.88584 30.3359 5.34782 31.5265C4.42089 32.2444 3.52462 33.0071 2.89162 34.004C1.87314 35.6072 1.51262 37.3153 2.27177 39.1391C2.49343 39.6718 2.83161 40.132 3.30866 40.4721C3.46329 40.5821 3.63676 40.6913 3.81768 40.7341C4.28115 40.8428 4.75337 40.914 5.22253 41L6.55117 40.9991C8.02041 40.8686 9.35781 40.3669 10.5664 39.5356C12.4553 38.2362 13.7279 36.494 14.275 34.2581C14.6728 32.6329 14.689 31.0061 14.2203 29.3884C14.1754 29.2385 14.1236 29.0908 14.0652 28.9456C14.0082 28.8002 13.9412 28.6588 13.8624 28.4776L16.8745 26.7512L16.9196 26.7896C16.8648 26.9682 16.8066 27.1463 16.7571 27.3266C16.3992 28.6295 16.1613 29.9551 16.2467 31.3074C16.3378 32.7482 16.7413 34.097 17.5876 35.3007C18.2719 36.2744 19.9023 36.3106 20.6295 35.3335C20.8875 34.9864 21.1376 34.6235 21.3256 34.2362C21.8166 33.2254 22.2713 32.1968 22.7405 31.1751L22.8224 30.9882C22.7887 31.472 22.7493 31.8968 22.7313 32.3221C22.7033 32.9862 22.7422 33.6464 22.97 34.2782C23.165 34.8187 23.4966 35.2226 24.1178 35.2937C24.5427 35.3422 24.8813 35.1483 25.1936 34.9025C25.6775 34.5214 26.0786 34.0462 26.3724 33.5058C27.2052 31.9815 28.0603 30.4664 28.8151 28.9037C29.6316 27.2136 30.3456 25.474 31.1039 23.755L31.2292 23.4503C31.4084 24.1519 31.5332 24.8392 31.7632 25.4898C32.0304 26.2447 32.3611 26.9817 32.7212 27.6982C32.8916 28.0366 32.8719 28.2562 32.6358 28.54C31.6475 29.7276 30.6764 30.9297 29.7043 32.1304C29.4892 32.3954 29.275 32.6653 29.0958 32.9547C28.9872 33.1375 28.9157 33.3399 28.8856 33.5503C28.8554 33.744 28.9017 33.9418 29.0146 34.1022C29.1276 34.2626 29.2984 34.3733 29.4914 34.4109C29.8809 34.4945 30.2802 34.5229 30.6777 34.4952C32.0343 34.3956 33.2662 33.921 34.3552 33.1167C35.7662 32.0749 36.2191 30.6533 35.8774 28.9684C35.785 28.5112 35.6216 28.0667 35.4626 27.6262C35.3912 27.4275 35.3864 27.2882 35.5165 27.1031C36.6445 25.4976 37.6082 23.7943 38.5045 22.0518C38.54 21.9832 38.5763 21.9147 38.6385 21.8413C38.9289 23.3477 39.3661 24.7994 40.1494 26.1167C39.7499 26.5005 39.3543 26.8485 38.9964 27.2319C38.2083 28.0763 37.525 28.9932 37.1684 30.1114C37.0151 30.5935 36.8972 31.0834 36.9656 31.5981C37.0716 32.3976 37.7287 32.9172 38.5176 32.7351C40.2059 32.3456 41.6633 31.5527 42.7282 30.1481C43.4449 29.2024 43.5102 28.1475 43.2101 27.0424C43.1277 26.742 43.0301 26.4464 42.9249 26.1019C43.3415 25.9731 43.7476 25.8185 44.1677 25.7229C46.3488 25.2269 48.5062 25.3134 50.608 26.0984C51.835 26.5569 52.8264 27.324 53.4142 28.5308C54.1322 30.0062 53.7353 31.406 52.3401 32.3387C52.21 32.4256 52.0611 32.4941 51.9533 32.6028C51.9188 32.6427 51.893 32.6893 51.8775 32.7397C51.8621 32.79 51.8573 32.8431 51.8635 32.8954C51.8727 32.9491 52.0151 33.0163 52.097 33.0154C52.5556 33.0119 52.9275 32.7722 53.2846 32.526C54.1791 31.909 54.8318 31.079 54.9724 29.9861L55 29.904L54.9663 29.1923C54.9527 29.1513 54.9763 29.1107 54.9733 29.0797C54.7832 27.4882 53.9303 26.2538 52.6897 25.2863C51.2528 24.1663 49.5562 23.7053 47.762 23.6324C46.3067 23.5699 44.8534 23.7929 43.4843 24.2886C43.0914 24.4305 42.7019 24.5986 42.3068 24.7571C42.2538 24.6615 42.1969 24.5698 42.15 24.475C41.7444 23.6472 41.2528 22.856 41.1442 21.9068C41.0671 21.2327 40.9725 20.5594 41.1333 19.8927C41.2879 19.2513 41.4894 18.6208 41.6791 17.9881C41.7768 17.6624 41.708 17.4799 41.3961 17.3332C41.2874 17.2791 41.1714 17.2412 41.0518 17.2205C40.2852 17.1096 39.5291 17.1729 38.7866 17.3882C38.5237 17.4646 38.3328 17.6113 38.2745 17.9012C38.2412 18.0676 38.1733 18.2269 38.126 18.3911C37.9319 19.0735 37.7944 19.7691 37.4807 20.4192C36.6949 22.05 35.7977 23.6193 34.8795 25.1771C34.7801 25.3452 34.6754 25.5103 34.5501 25.7142C34.2277 25.0418 33.8838 24.4384 33.7796 23.731C33.6617 22.9311 33.5689 22.1325 33.7686 21.3388C33.9171 20.7467 34.1112 20.1655 34.2899 19.5813C34.3745 19.3036 34.3355 19.1578 34.0831 19.0115C33.9557 18.9378 33.8115 18.8723 33.6679 18.8509C32.8818 18.7315 32.0786 18.797 31.3225 19.0421C31.0846 19.119 30.9598 19.2722 30.8871 19.5167C30.6733 20.238 30.4911 20.9768 30.191 21.6627C28.9758 24.4397 27.7256 27.2022 26.4767 29.9643C26.2161 30.5411 25.9107 31.0978 25.6168 31.6593C25.5423 31.8016 25.4337 31.9269 25.3408 32.0605C25.2663 31.9728 25.2374 31.9125 25.2379 31.8523C25.2401 31.4973 25.1976 31.1318 25.2655 30.7886C25.474 29.7507 25.7044 28.7173 25.9567 27.689C26.1626 26.8394 26.4022 25.9976 26.6305 25.1536C26.7071 24.8711 26.7084 24.6069 26.5047 24.3694C26.1626 23.9716 25.4477 23.8843 25.0237 24.1908L24.8362 24.2965L24.8725 23.9952C24.9619 23.3494 24.9798 22.7058 24.802 22.0697C24.5803 21.2768 24.0126 20.8205 23.1873 20.8458C22.8027 20.8576 22.3988 20.9231 22.0427 21.0628C20.5449 21.6479 19.3933 22.684 18.4129 23.9306C18.322 24.0463 18.2094 24.1433 18.0813 24.2161C16.814 24.9165 15.5428 25.6081 14.2719 26.3023L12.8575 27.0747C12.4781 26.7141 12.1333 26.3399 11.7422 26.0224C10.5476 25.0514 9.33371 24.1043 8.13081 23.1442C7.06457 22.2932 6.03163 21.4069 5.24137 20.2799C4.6535 19.4416 4.27458 18.5243 4.23822 17.4877C4.19222 16.1669 4.56807 14.9601 5.24268 13.8367C6.10566 12.3993 7.28272 11.2457 8.57675 10.2009C9.94568 9.09622 11.4263 8.15835 12.9608 7.30212C15.1078 6.10446 17.316 5.04433 19.6837 4.34442C22.1114 3.62661 24.5746 3.21575 27.1154 3.50217C28.1142 3.61482 29.084 3.84274 29.9746 4.32958C30.6566 4.70202 31.2161 5.18973 31.4763 5.95208C31.733 6.7022 31.7251 7.46236 31.5472 8.22428C31.1858 9.76731 30.3382 11.0392 29.2715 12.1757C27.5219 14.0388 25.3877 15.3072 22.9849 16.1451C21.6034 16.6275 20.166 16.9331 18.7073 17.0546C17.5118 17.1546 16.3413 17.0489 15.2094 16.6346C14.4599 16.3599 13.8072 15.9399 13.2824 15.3304C13.1886 15.2212 13.0686 15.1029 12.8938 15.205C12.7225 15.3055 12.6923 15.4679 12.7497 15.6325C12.8456 15.9058 12.9341 16.1905 13.0835 16.435C13.4589 17.0485 14.0065 17.4934 14.6093 17.875C15.767 18.609 17.0611 18.8557 18.4028 18.9129C20.4389 19.0006 22.4255 18.6976 24.3841 18.1531C27.1802 17.3759 29.6114 16.0032 31.5612 13.8375C33.1847 12.0343 34.3442 9.99916 34.5926 7.54183C34.7139 6.34242 34.5847 5.16746 34.0214 4.07328C33.4103 2.88784 32.4387 2.00629 31.2769 1.39895C29.5852 0.514781 27.7593 0 25.8748 0H23.9868C21.7045 0 19.498 0.651882 17.3533 1.42951C15.7298 2.01852 14.1379 2.71363 12.5924 3.48296C9.22683 5.15917 6.09252 7.18031 3.51805 9.95943C2.23541 11.344 1.14947 12.8717 0.524794 14.6706C0.336256 15.2077 0.173839 15.7535 0.0381111 16.3062M12.2332 32.0304C12.0873 33.9773 11.202 35.5557 9.75513 36.8342C8.94121 37.5528 8.00771 38.0646 6.92045 38.2445C6.5262 38.3095 6.12274 38.3252 5.74032 38.1624C5.19494 37.9301 5.07272 37.4476 5.0622 36.9337C5.046 36.1146 5.3338 35.3741 5.72849 34.6694C6.24365 33.7507 6.99886 33.0504 7.80533 32.3963C9.0757 31.3654 10.4538 30.493 11.8653 29.6696L11.9717 29.6259C12.1899 30.4293 12.2937 31.2226 12.2332 32.0304ZM23.2539 23.569C23.151 24.1908 23.0222 24.813 22.8399 25.4155C22.21 27.5013 21.4009 29.5224 20.5261 31.5165C20.3645 31.8854 20.1292 32.2221 19.9247 32.5718C19.8899 32.6256 19.8482 32.6746 19.8007 32.7177C19.5475 32.967 19.3074 32.9539 19.1795 32.6277C19.0306 32.2487 18.939 31.8431 18.8602 31.4418C18.8072 31.1724 18.8199 30.8895 18.8032 30.6136C18.8203 28.6514 19.4209 26.8682 20.4398 25.2081C20.8599 24.5235 21.3172 23.8712 22.0159 23.4381C22.2333 23.3034 22.4685 23.1996 22.7146 23.1298C23.087 23.0254 23.3157 23.197 23.2539 23.569ZM30.7727 33.1172L33.4751 29.9722C33.5877 31.1401 31.5958 33.4717 30.7727 33.1172ZM39.4038 31.0008C39.2128 31.11 39.0047 31.1886 38.8089 31.2895C38.6298 31.382 38.5706 31.2886 38.5654 31.1349C38.5627 31.0285 38.5765 30.9223 38.6061 30.8201C38.971 29.5373 39.6425 28.4422 40.6418 27.5515L40.7118 27.5157C41.1871 28.8409 40.6378 30.2961 39.4038 31.0008Z" fill="#c86195"/>
</svg>
