<svg width="64" height="64" viewBox="0 0 64 64" fill="none" xmlns="http://www.w3.org/2000/svg">
<path d="M60.8 29.4368H57.664C55.8944 29.4368 54.464 30.5856 54.464 32C54.464 33.4112 55.8944 34.5568 57.664 34.5568H60.8C62.5664 34.5568 64 33.4144 64 32C64 30.5888 62.5632 29.4368 60.8 29.4368ZM32 14.4C29.6867 14.3928 27.3949 14.8432 25.2563 15.7251C23.1177 16.607 21.1746 17.9032 19.5389 19.5389C17.9032 21.1746 16.607 23.1177 15.7251 25.2563C14.8432 27.3949 14.3928 29.6867 14.4 32C14.4 41.7632 22.2368 49.6 32 49.6C41.76 49.6 49.6 41.7632 49.6 32C49.6 22.2368 41.7568 14.4 32 14.4ZM32 44.8C24.9248 44.8 19.2 39.0688 19.2 32C19.2 24.9248 24.9248 19.2 32 19.2C35.3948 19.2 38.6505 20.5486 41.051 22.949C43.4514 25.3495 44.8 28.6052 44.8 32C44.8 35.3948 43.4514 38.6505 41.051 41.051C38.6505 43.4514 35.3948 44.8 32 44.8ZM9.6 32C9.6 30.5888 8.1632 29.4368 6.4 29.4368H3.2C1.4304 29.4368 0 30.5856 0 32C0 33.4112 1.4304 34.5568 3.2 34.5568H6.4C8.1632 34.5568 9.6 33.4112 9.6 32ZM32 9.6C33.4112 9.6 34.5568 8.1696 34.5568 6.4V3.2C34.5568 1.4304 33.4112 0 32 0C30.5888 0 29.4368 1.4304 29.4368 3.2V6.4C29.4368 8.1696 30.5856 9.6 32 9.6ZM32 54.4C30.5856 54.4 29.4368 55.8304 29.4368 57.6V60.8C29.4368 62.5696 30.5856 64 32 64C33.4112 64 34.5568 62.5696 34.5568 60.8V57.6C34.5568 55.8304 33.4112 54.4 32 54.4ZM55.568 12.0512C56.8192 10.8 57.0208 8.976 56.0224 7.9776C55.024 6.9792 53.1968 7.184 51.952 8.4352L49.712 10.672C48.4608 11.9232 48.2592 13.7472 49.2576 14.7456C50.256 15.744 52.0832 15.5392 53.3312 14.288L55.568 12.0512ZM10.6688 49.7056L8.4288 51.9488C7.1776 53.2 6.976 55.0176 7.9744 56.016C8.9728 57.0144 10.8 56.816 12.0448 55.5648L14.2848 53.328C15.536 52.0768 15.7376 50.2528 14.7392 49.2512C13.7408 48.2496 11.9136 48.4608 10.6688 49.7056ZM12.048 8.432C10.8 7.1808 8.9728 6.976 7.9744 7.9744C6.976 8.9728 7.1808 10.8 8.4256 12.0512L10.6656 14.288C11.9168 15.5392 13.7376 15.744 14.736 14.7456C15.7344 13.7472 15.5328 11.92 14.2848 10.672L12.048 8.432ZM49.7088 53.3312L51.9488 55.568C53.2 56.8192 55.0208 57.0176 56.0192 56.0256C57.0176 55.0272 56.816 53.2 55.5648 51.952L53.328 49.7152C52.0768 48.464 50.2528 48.2592 49.2512 49.2576C48.2496 50.256 48.4576 52.08 49.7088 53.3312Z" fill="black"/>
</svg>
