<svg width="32" height="20" viewBox="0 0 32 20" fill="none" xmlns="http://www.w3.org/2000/svg">
<path fill-rule="evenodd" clip-rule="evenodd" d="M8.44658 6.54408C9.49175 2.36291 12.1054 0.272079 16.2866 0.272079C22.5586 0.272079 23.3426 4.97608 26.4786 5.76008C28.5694 6.28291 30.3986 5.49891 31.9666 3.40808C30.9214 7.58925 28.3078 9.68008 24.1266 9.68008C17.8546 9.68008 17.0706 4.97608 13.9346 4.19208C11.8438 3.66925 10.0146 4.45325 8.44658 6.54408ZM0.606583 15.9521C1.65175 11.7709 4.26541 9.68008 8.44658 9.68008C14.7186 9.68008 15.5026 14.3841 18.6386 15.1681C20.7294 15.6909 22.5586 14.9069 24.1266 12.8161C23.0814 16.9973 20.4678 19.0881 16.2866 19.0881C10.0146 19.0881 9.23058 14.3841 6.09458 13.6001C4.00375 13.0773 2.17458 13.8613 0.606583 15.9521Z" fill="url(#paint0_linear_36_32)"/>
<defs>
<linearGradient id="paint0_linear_36_32" x1="0.606583" y1="-16.4531" x2="31.9666" y2="35.8133" gradientUnits="userSpaceOnUse">
<stop stop-color="#2383AE"/>
<stop offset="1" stop-color="#6DD7B9"/>
</linearGradient>
</defs>
</svg>
