<svg width="26" height="26" viewBox="0 0 26 26" fill="none" xmlns="http://www.w3.org/2000/svg">
<path d="M14.0835 11.9167L19.5002 6.5" stroke="#51FFD0" stroke-width="1.5"/>
<path d="M20.5834 7.58332L18.4168 5.41666L21.1251 3.79166L22.2084 4.87499L20.5834 7.58332ZM4.36052 9.72291C3.84041 9.20325 3.48259 8.54359 3.33064 7.82423C3.17869 7.10487 3.23916 6.35685 3.50469 5.67124L5.04519 7.21174H7.21186V5.04507L5.67136 3.50457C6.35701 3.23844 7.10527 3.17747 7.82497 3.32909C8.54466 3.48071 9.20473 3.83837 9.72474 4.3585C10.2448 4.87863 10.6023 5.53877 10.7537 6.2585C10.9052 6.97823 10.8441 7.72648 10.5778 8.41207L17.5869 15.4223C18.2725 15.156 19.0208 15.0949 19.7405 15.2464C20.4602 15.3978 21.1204 15.7553 21.6405 16.2754C22.1606 16.7954 22.5183 17.4554 22.6699 18.1751C22.8215 18.8948 22.7606 19.6431 22.4944 20.3287L20.955 18.7882H18.7884V20.9549L20.3289 22.4954C19.6434 22.7615 18.8953 22.8226 18.1757 22.6712C17.4562 22.5197 16.7961 22.1623 16.2761 21.6425C15.756 21.1226 15.3983 20.4628 15.2466 19.7433C15.0948 19.0238 15.1555 18.2757 15.4214 17.5901L8.41002 10.5787C7.7247 10.8438 6.97712 10.904 6.2582 10.7521C5.53928 10.6002 4.87999 10.2426 4.36052 9.72291Z" stroke="#51FFD0" stroke-width="1.5" stroke-linejoin="round"/>
<path d="M13.2201 15.7083L7.14909 21.7793C7.01325 21.9154 6.8519 22.0234 6.67428 22.0971C6.49666 22.1707 6.30626 22.2086 6.11397 22.2086C5.92168 22.2086 5.73127 22.1707 5.55365 22.0971C5.37603 22.0234 5.21468 21.9154 5.07884 21.7793L4.22084 20.9213C4.08474 20.7855 3.97677 20.6241 3.9031 20.4465C3.82942 20.2689 3.7915 20.0785 3.7915 19.8862C3.7915 19.6939 3.82942 19.5035 3.9031 19.3259C3.97677 19.1482 4.08474 18.9869 4.22084 18.8511L10.2918 12.7801" stroke="#51FFD0" stroke-width="1.5" stroke-linejoin="round"/>
</svg>
